<svg preserveAspectRatio="none" overflow="visible" style="display: block;" width="92" height="86" viewBox="0 0 92 86" fill="none" xmlns="http://www.w3.org/2000/svg">
<g id="noun-meat-3068640 1">
<path id="Vector" d="M71.1286 50.0855C71.1099 50.0372 71.0794 49.9943 71.0398 49.9607C71.0002 49.9271 70.9527 49.9039 70.9018 49.8931C70.8296 49.8819 70.7307 49.8945 70.7311 49.9649C70.7318 50.0713 70.8336 50.1239 70.9354 50.1287C71.0015 50.123 71.0664 50.1085 71.1286 50.0855Z" fill="#211F20"/>
<path id="Vector_2" d="M65.8266 66.4107C65.8769 66.3308 65.8122 66.2776 65.7635 66.2312C65.6736 66.1455 65.582 66.1976 65.5106 66.2601C65.4008 66.356 65.4726 66.4141 65.5685 66.4605C65.6098 66.4865 65.6595 66.4958 65.7075 66.4865C65.7554 66.4773 65.798 66.4501 65.8266 66.4107Z" fill="#211F20"/>
<path id="Vector_3" d="M22.5747 54.3276C22.5353 54.2968 22.4864 54.2304 22.4263 54.218C22.3415 54.2006 22.29 54.2726 22.3001 54.3538C22.31 54.4334 22.3833 54.4659 22.4569 54.4713C22.5361 54.4771 22.6001 54.4534 22.5747 54.3276Z" fill="#211F20"/>
<path id="Vector_4" d="M63.0425 32.804C63.0375 32.7031 62.9982 32.642 62.9209 32.6397C62.8327 32.6371 62.8186 32.7155 62.8223 32.7829C62.8255 32.8401 62.8112 32.9362 62.9054 32.9197C62.9605 32.9101 63.0045 32.838 63.0425 32.804Z" fill="#211F20"/>
<path id="Vector_5" d="M68.3921 47.7063C68.3584 47.7314 68.2921 47.7657 68.2962 47.7801C68.3065 47.8281 68.3325 47.8715 68.3701 47.9033C68.4077 47.9352 68.4548 47.9538 68.5042 47.9563C68.5351 47.958 68.5996 47.9028 68.596 47.8836C68.5882 47.835 68.5636 47.7906 68.5263 47.7583C68.4891 47.7259 68.4416 47.7075 68.3921 47.7063Z" fill="#211F20"/>
<path id="Vector_6" d="M11.4503 49.191L11.2856 48.9772C11.2647 49.0161 11.2504 49.0582 11.2436 49.1017C11.241 49.1381 11.2505 49.1744 11.2707 49.2049C11.2909 49.2354 11.3206 49.2584 11.3552 49.2705C11.4118 49.2895 11.4436 49.268 11.4503 49.191Z" fill="#211F20"/>
<path id="Vector_7" d="M54.9005 24.3961C54.8598 24.3714 54.8223 24.3302 54.7835 24.329C54.7112 24.3267 54.5599 24.2682 54.5959 24.3949C54.6196 24.4782 54.7932 24.4811 54.9005 24.3961Z" fill="#211F20"/>
<path id="Vector_8" d="M12.6381 48.2907C12.6585 47.6303 13.1147 47.4701 13.5169 47.3129C14.5051 46.9267 15.5137 46.5928 16.5067 46.2181C18.2626 45.5556 20.0386 44.9545 21.8281 44.3868C22.3861 44.1924 22.9043 43.8996 23.358 43.5225C23.2498 43.3062 23.0562 43.5818 22.9776 43.4248C22.8905 43.2504 23.0302 43.1285 23.1611 43.0802C23.6002 42.9185 24.0462 42.7731 24.4954 42.6414C26.1556 42.1547 27.7702 41.5341 29.3843 40.923C29.9693 40.6275 30.5109 40.2539 30.994 39.8125C31.2328 39.6333 31.2098 39.3141 31.2348 39.0616C31.3073 38.4494 31.5311 37.8647 31.8864 37.3596C32.1643 36.8382 32.3655 36.2799 32.4836 35.7016C32.5276 35.56 32.5512 35.3848 32.733 35.3865C32.9906 35.389 32.9104 35.6306 32.9635 35.776C33.0279 35.9522 32.869 36.0358 32.8039 36.1601C32.3973 36.9117 32.2678 37.7811 32.4378 38.6177C32.6677 38.2551 32.7753 37.829 32.7448 37.4015C32.7518 37.2254 32.6461 36.9119 32.9082 36.9153C33.216 36.9194 33.1142 37.2386 33.1021 37.44C33.0701 37.8572 32.9791 38.2678 32.8318 38.6597C32.7404 38.8615 32.7147 39.0866 32.7582 39.3037C32.8018 39.5207 32.9124 39.7188 33.0747 39.8702C33.4596 40.2558 33.7524 40.7225 33.9314 41.2358C33.9891 41.3988 34.0928 41.5418 34.2301 41.6477C35.4698 42.7022 36.8251 43.6145 38.2702 44.3674C38.6272 44.5458 38.8501 44.2256 39.14 44.3256C39.0796 44.1338 39.108 44.039 39.2865 43.8615C39.3202 43.8119 39.3644 43.7703 39.416 43.7396C39.4676 43.7089 39.5254 43.6899 39.5853 43.6839C39.6451 43.6779 39.7055 43.6851 39.7623 43.705C39.819 43.7248 39.8707 43.7568 39.9136 43.7987C40.1563 43.9676 40.3876 44.1521 40.6059 44.3511C41.1182 44.884 41.6882 45.3588 42.3055 45.7669C42.4031 45.822 42.4278 45.9117 42.3886 46.105C41.5289 45.5212 40.705 44.8869 39.9212 44.2054C39.8678 44.2368 39.7974 44.275 39.7988 44.2778C39.9563 44.5933 39.4649 44.8275 39.6526 45.0889C39.8416 45.3521 40.2079 45.1263 40.4935 45.2513C41.2457 45.5654 41.9221 46.035 42.4779 46.6289C43.5049 47.7491 44.5877 48.8214 45.5713 49.9777C46.7464 51.1317 48.0301 52.1711 49.4048 53.0814C50.3099 53.8097 51.2821 54.4337 52.2199 55.1103C52.6769 55.4877 53.0889 55.9158 53.4481 56.3862C53.9013 56.9047 54.3084 57.4632 54.7307 58.008C54.8323 58.1392 54.9665 58.2696 54.8648 58.4835C54.534 58.4722 54.4845 57.9553 54.0419 58.0608C54.194 58.4149 54.4166 58.7347 54.6963 59.0008C54.7154 59.0166 54.7312 59.036 54.7426 59.0579C54.754 59.0799 54.7608 59.1039 54.7627 59.1285C54.7646 59.1531 54.7614 59.1778 54.7535 59.2012C54.7456 59.2246 54.733 59.2462 54.7165 59.2647C54.6983 59.2898 54.6745 59.3104 54.6469 59.3249C54.6193 59.3393 54.5887 59.3472 54.5576 59.3478C54.5264 59.3485 54.4956 59.342 54.4674 59.3288C54.4392 59.3155 54.4145 59.296 54.3952 59.2716C54.2468 59.1423 54.1206 58.9896 54.0219 58.8196C53.8361 58.4762 53.6222 58.147 53.4062 57.8208C53.3259 57.6995 53.2162 57.5208 53.1048 57.509C52.3848 57.4324 52.001 56.8621 51.5576 56.4356C50.3265 55.2513 48.9418 54.2557 47.6473 53.1513C46.52 52.2405 45.4804 51.2273 44.5421 50.1248C44.1935 49.709 43.779 49.3527 43.3148 49.07C42.8028 48.6936 42.2658 48.3521 41.7075 48.0477C40.7479 47.605 39.9992 46.808 39.0149 46.3935C38.9264 46.3563 38.785 46.2894 38.7818 46.2302C38.7552 45.7385 38.2682 45.7867 38.0158 45.5658C37.8864 45.4524 37.7664 45.4384 37.7302 45.6801C37.7151 45.7809 37.5395 45.7721 37.4897 45.6935C36.9533 44.8462 35.9379 44.6677 35.2241 44.0751C34.2842 43.4006 33.2333 42.8941 32.1186 42.5785C31.9925 42.5323 31.8248 42.3804 31.7212 42.5395C31.457 42.9455 31.0817 42.8149 30.7187 42.8063C30.4477 42.7765 30.1736 42.7922 29.9078 42.8527C28.4564 43.336 26.8815 43.3247 25.4697 43.959C25.3574 44.0095 25.2256 44.0215 25.12 44.0813C24.0875 44.6665 22.9181 44.9323 21.8654 45.4736C20.9451 45.8957 19.9939 46.2478 19.0202 46.5269C17.9053 46.9017 16.7389 47.0922 15.6452 47.5487C14.7132 47.9378 13.6762 47.9569 12.6381 48.2907ZM32.1179 39.0851C31.9124 39.3965 31.6964 39.6854 31.523 39.9977C31.3674 40.2751 31.1369 40.5037 30.8576 40.6577C29.6926 41.347 28.5446 42.0647 27.3929 42.7761C27.3632 42.7945 27.3637 42.8611 27.3502 42.9059C27.542 42.9601 27.7466 42.9486 27.931 42.8733C28.7402 42.6532 29.5507 42.4334 30.3476 42.1738C30.8148 42.0131 31.3136 41.9646 31.8032 42.0323C32.2929 42.0999 32.7595 42.2819 33.1649 42.5632C33.7869 42.8931 34.454 43.1307 35.1452 43.2685C35.156 43.2037 35.1484 43.1372 35.1231 43.0765C35.0978 43.0159 35.0559 42.9635 35.0022 42.9253C34.3524 42.404 33.6685 41.9264 32.9547 41.4957C32.7052 41.3533 32.4167 41.2213 32.3184 40.9126C32.2867 40.8132 32.1635 40.6879 32.3112 40.5906C32.4327 40.5105 32.5362 40.5683 32.6295 40.6729C32.8227 40.9592 33.1106 41.1691 33.4433 41.2661C33.2338 40.4897 33.111 40.3386 32.2554 39.7848C32.1588 39.7223 32.1656 39.6291 32.1487 39.5361C32.124 39.4 32.29 39.2701 32.1179 39.0851ZM42.938 48.1115C42.1929 47.1054 40.1004 45.6682 39.4237 45.637C40.4081 46.6974 41.6053 47.5403 42.938 48.1115ZM27.981 41.9607C26.7818 42.2786 25.6485 42.7368 24.463 43.0314C24.3467 43.0603 24.1471 43.1016 24.2007 43.3128C24.2572 43.5356 24.4155 43.5302 24.6054 43.4851C25.8124 43.1796 26.9554 42.6635 27.981 41.9607ZM36.7877 44.1894C37.0052 44.819 37.4957 44.9278 37.8925 45.1208C38.7628 45.5442 38.7715 45.5265 39.1174 45.3606C38.3192 45.0949 37.7417 44.4277 36.7877 44.1894ZM48.4912 53.1803C49.2785 53.6354 49.7684 54.4796 50.6984 54.9596C50.1311 54.1854 49.3702 53.572 48.4912 53.1803ZM16.617 46.7019C15.9308 46.6515 15.3918 47.0985 14.7754 47.3258C15.4358 47.2927 16.0737 47.0767 16.617 46.7019ZM19.816 45.7929C19.4688 45.9556 19.0254 45.7847 18.6971 46.191C19.1023 46.1753 19.4928 46.0363 19.816 45.7929ZM21.5955 45.1618C21.5949 45.0925 21.5642 45.0796 21.501 45.1196C21.4412 45.1575 21.3799 45.1929 21.3192 45.2294C21.3571 45.2475 21.3952 45.2808 21.433 45.2806C21.4696 45.2821 21.5057 45.2712 21.5352 45.2496C21.5648 45.2281 21.5861 45.1971 21.5955 45.1618ZM41.1838 45.9486C41.1227 45.9288 41.0608 45.9673 41.0835 46.0015C41.1367 46.0727 41.204 46.1323 41.2813 46.1766C41.3218 46.1828 41.3631 46.173 41.3965 46.1494C41.394 46.0108 41.2435 46.0233 41.1838 45.9486ZM31.89 38.319C31.7442 38.3386 31.7306 38.4128 31.7278 38.4802C31.7304 38.5471 31.7392 38.6136 31.754 38.6789L31.8243 38.6861L31.89 38.319Z" fill="#211F20"/>
<path id="Vector_9" d="M34.5585 52.5282C34.2688 52.0885 33.8862 51.7169 33.4372 51.4394C32.9882 51.1619 32.4838 50.9851 31.9591 50.9215C31.8135 50.8959 31.6662 50.8815 31.5185 50.8785C31.3644 50.8754 31.1933 50.8713 31.2282 50.6692C31.2591 50.4906 31.4305 50.4816 31.5867 50.5135C31.6593 50.5283 31.7285 50.5602 31.8013 50.5723C32.3362 50.6619 32.8438 50.8449 33.3967 50.9717C33.0732 50.7143 32.7615 50.4402 32.4229 50.2043C32.2766 50.0699 32.0923 49.9835 31.895 49.9568C31.6977 49.9301 31.4969 49.9645 31.3199 50.0552C31.2947 50.0733 31.2656 50.0853 31.2349 50.0903C31.2042 50.0953 31.1728 50.0931 31.1431 50.0839C31.1134 50.0747 31.0862 50.0588 31.0638 50.0374C31.0414 50.016 31.0243 49.9896 31.0138 49.9605C30.9551 49.8089 31.1011 49.7543 31.1961 49.6831C31.3391 49.5845 31.514 49.5425 31.6865 49.5656C32.0355 49.591 32.366 49.7311 32.6262 49.9638C33.7671 50.8264 34.8297 51.7871 35.8017 52.8346C36.2647 53.3412 36.8741 53.6927 37.5461 53.841C38.7194 54.1442 39.8027 54.7222 40.7056 55.5267C40.9253 55.7586 41.1322 56.0021 41.3256 56.2561C42.453 57.5213 44.011 58.3274 45.7 58.5192C46.0412 58.577 46.3862 58.614 46.7306 58.6505C46.7799 58.6515 46.8278 58.6666 46.8686 58.694C46.9095 58.7214 46.9415 58.76 46.9609 58.805C47.0201 58.9567 46.8924 58.9939 46.7912 59.0695C46.691 59.1712 46.562 59.24 46.4214 59.2669C46.2808 59.2938 46.1354 59.2774 46.0044 59.2199C45.6465 59.1265 45.2789 59.0751 44.909 59.0665C44.2406 58.991 43.6104 58.7177 43.1 58.2819C42.7457 57.9766 42.3442 57.7302 41.9109 57.5522C40.7445 57.0634 39.6888 56.3465 38.8063 55.4442C37.8737 54.6074 36.8004 53.94 35.6355 53.4725C34.8072 53.1554 33.9244 53.0027 33.037 53.0227C32.5514 52.9773 32.1864 52.6396 31.7031 52.6243C31.564 52.6199 31.5751 52.4447 31.6737 52.338C31.7253 52.2838 31.7898 52.2433 31.8612 52.2203C31.9326 52.1973 32.0087 52.1925 32.0825 52.2063C32.7484 52.1765 33.414 52.27 34.0456 52.482C34.1187 52.5356 34.2051 52.5682 34.2956 52.5763C34.386 52.5845 34.4769 52.5678 34.5585 52.5282ZM41.129 56.6798C40.3049 55.371 39.6604 54.8886 38.6337 54.8155C39.3167 55.6127 40.1689 56.2494 41.129 56.6798Z" fill="#211F20"/>
<path id="Vector_10" d="M33.7876 48.8552H32.5654C32.7393 48.7202 32.9408 48.6249 33.1558 48.5759C33.3708 48.527 33.594 48.5256 33.8096 48.5719C34.2088 48.5682 34.5992 48.6884 34.9265 48.9156C34.9588 48.9353 34.9861 48.9622 35.0062 48.9942C35.0263 49.0261 35.0387 49.0623 35.0423 49.0998C35.046 49.1373 35.0408 49.1752 35.0273 49.2104C35.0137 49.2456 34.9921 49.2771 34.9642 49.3026C34.9405 49.3319 34.91 49.3549 34.8753 49.3696C34.8406 49.3844 34.8027 49.3904 34.7651 49.3871C34.7275 49.3838 34.6913 49.3714 34.6597 49.3509C34.6281 49.3304 34.602 49.3025 34.5838 49.2696C34.4192 49.0187 34.3192 49.1053 34.0713 49.2187C33.4196 49.4717 32.6949 49.4654 32.0477 49.2009C31.5376 49.0181 31.0411 48.7995 30.562 48.5468C29.7401 48.0916 28.8322 47.8107 27.8957 47.7217C27.6266 47.7086 27.4603 47.3431 27.1838 47.5248C26.9959 47.6833 26.8187 47.8541 26.6535 48.036C26.5116 48.1741 26.3425 48.2815 26.1569 48.3514C25.9712 48.4212 25.7729 48.4521 25.5747 48.4419C25.3528 48.426 25.1298 48.427 24.9074 48.4192C24.4856 48.4001 24.0653 48.4827 23.6826 48.6601C23.2999 48.8374 22.966 49.1043 22.7095 49.4379C22.514 49.6714 22.3725 49.982 21.9365 50.0478C22.0181 49.7007 22.3054 49.5531 22.4384 49.2674C22.272 49.171 22.1304 49.3035 21.9872 49.3208C21.8448 49.3379 21.6747 49.4217 21.6274 49.2102C21.5858 49.0241 21.7574 48.9511 21.8902 48.9066C23.7901 48.2694 25.4946 47.1903 27.3761 46.5131C27.9315 46.3132 28.4851 46.1012 29.054 45.9482C29.3933 45.8569 29.7925 45.789 29.9647 46.2825C29.2564 46.4762 28.5686 46.7374 27.9108 47.0625C29.2443 47.2869 30.3474 48.0413 31.5971 48.3881C31.7413 48.419 31.8731 48.4914 31.9763 48.5962C32.1922 48.855 32.4971 49.0248 32.8318 49.0727C33.1665 49.1205 33.5072 49.043 33.7876 48.8552ZM24.8956 48.0402C25.3077 48.167 25.7519 48.1433 26.148 47.9733C26.5441 47.8033 26.8662 47.4983 27.0563 47.1131C26.2885 47.2984 25.5579 47.6119 24.8956 48.0402Z" fill="#211F20"/>
<path id="Vector_11" d="M53.927 48.3543C54.2526 48.2501 54.4524 48.172 54.3116 47.8546C54.2295 47.7376 54.1813 47.6004 54.1723 47.458C54.1633 47.3156 54.1938 47.1735 54.2605 47.0471C54.5594 47.4508 54.7484 47.9244 54.8093 48.422C54.9088 48.9002 55.0756 49.362 55.3048 49.7939C55.7716 50.7439 56.1333 51.7416 56.3834 52.7693C56.6678 53.7355 57.0672 54.6645 57.5732 55.5365C57.8449 56.0303 58.0723 56.5478 58.3301 57.0493C58.3482 57.0736 58.361 57.1014 58.3677 57.1308C58.3743 57.1603 58.3747 57.1908 58.3688 57.2204C58.3629 57.2501 58.3508 57.2781 58.3333 57.3028C58.3159 57.3275 58.2934 57.3483 58.2674 57.3639C58.2257 57.3908 58.1763 57.4032 58.1268 57.399C58.0773 57.3948 58.0307 57.3744 57.9942 57.3408C57.8943 57.2678 57.7844 57.2021 57.7615 57.0681C57.4629 56.0791 57.0353 55.1333 56.4896 54.2547C56.0366 53.2608 55.874 52.1905 55.4985 51.1809C55.3806 50.8153 55.2213 50.4641 55.0238 50.1342C55.0013 50.6716 55.0917 51.2077 55.2893 51.7084C55.5017 52.641 55.747 53.5693 56.0397 54.4799C56.2587 55.4088 56.6636 56.2843 57.2302 57.0541C57.3611 57.2072 57.6221 57.3939 57.3158 57.5903C57.0814 57.7406 56.9484 57.5837 56.8086 57.3544C56.3736 56.6126 56.036 55.8185 55.804 54.9914C55.4445 53.7958 55.103 52.595 54.7794 51.3889C54.6733 51.0091 54.6218 50.6163 54.6264 50.2221C54.684 49.8771 54.6497 49.5232 54.527 49.1955C54.4043 48.8678 54.1974 48.5777 53.927 48.3543Z" fill="#211F20"/>
<path id="Vector_12" d="M43.2522 43.8363C42.6009 43.7672 42.4393 43.0495 41.8884 42.7841C41.8222 43.1865 41.7208 43.5264 42.052 43.8238C42.0774 43.842 42.0977 43.8663 42.1111 43.8944C42.1244 43.9226 42.1304 43.9536 42.1284 43.9847C42.1265 44.0157 42.1166 44.0458 42.0998 44.072C42.0829 44.0982 42.0597 44.1198 42.0322 44.1347C41.9739 44.1579 41.9092 44.1598 41.8496 44.1399C41.7901 44.1199 41.7396 44.0796 41.7074 44.026C41.4932 43.7492 41.3908 43.4029 41.4202 43.0549C41.4491 42.8111 41.4127 42.5641 41.3149 42.3388C41.2171 42.1135 41.0612 41.9178 40.863 41.7716C40.5021 41.4538 40.2081 41.0681 39.998 40.6367C39.7878 40.2054 39.6657 39.7369 39.6387 39.2583C39.5918 38.8951 39.4257 38.5575 39.1661 38.2979C38.8282 37.9409 38.5264 37.5517 38.2651 37.1359C37.9034 36.6385 37.4511 36.2129 36.9317 35.8814C36.6704 35.6881 36.2883 35.641 36.2022 35.2188C36.1626 35.0251 35.8123 35.2265 35.6987 34.9869C35.7875 34.8852 35.9098 34.8183 36.0437 34.798C36.1776 34.7778 36.3144 34.8055 36.4296 34.8764C36.7076 34.9828 36.9598 35.1468 37.1694 35.3573C38.2103 36.3328 39.1392 37.4201 39.9391 38.5992C40.3708 39.3323 40.9627 39.9767 41.3356 40.7575C41.3779 40.846 41.4688 40.925 41.4774 41.0141C41.6924 41.9775 42.2543 42.8294 43.0573 43.4092C43.1573 43.5092 43.2941 43.5936 43.2522 43.8363ZM40.248 39.7138C40.2516 40.0894 40.3445 40.4588 40.5191 40.7919C40.6937 41.125 40.945 41.4123 41.2525 41.6304C41.0502 40.9311 40.7086 40.2793 40.248 39.7138Z" fill="#211F20"/>
<path id="Vector_13" d="M33.0987 47.8241C33.3089 47.5647 33.6006 47.3831 33.9271 47.3083C34.2535 47.2336 34.5958 47.2701 34.8988 47.4119C35.9028 47.7521 36.8749 48.1787 37.8042 48.6871C38.3744 48.9814 38.968 49.2286 39.5789 49.4264C40.6498 49.8181 41.6238 50.4337 42.4351 51.2316C42.9201 51.7066 43.4622 52.1203 44.049 52.4635L43.3085 53.038C43.1231 52.941 43.1143 52.7817 43.0478 52.655C42.8717 52.275 42.5643 51.9705 42.1814 51.7969C41.4367 51.4707 40.729 51.066 39.9844 50.7326C39.1775 50.3038 38.4229 49.7839 37.7357 49.1832C36.7734 48.3989 35.593 47.9259 34.3527 47.8278C33.936 47.8043 33.5168 47.8241 33.0987 47.8241ZM41.5789 51.0218C40.8142 50.3349 39.8922 49.8441 38.8933 49.5922C39.692 50.2298 40.6025 50.7145 41.5789 51.0218Z" fill="#211F20"/>
<path id="Vector_14" d="M16.1121 43.1805C15.1162 43.5033 14.0669 43.6318 13.0219 43.5588C12.6529 43.6296 12.2785 43.6694 11.9027 43.6777C11.6021 43.6465 11.4407 43.9236 11.2616 44.1255C11.1747 44.2234 11.0527 44.3041 10.9419 44.218C10.7836 44.0951 10.8764 43.9517 10.988 43.8463C11.0856 43.7352 11.205 43.645 11.3388 43.5813C11.9088 43.3008 12.5274 43.1311 13.1614 43.0812C14.0012 43.0763 14.8311 42.8994 15.5992 42.5616C15.6912 42.5259 15.7825 42.4876 15.8764 42.4578C15.9726 42.4272 16.0939 42.4084 16.1078 42.5378C16.1169 42.6221 16.0433 42.7152 15.9831 42.8618C16.2711 42.7456 16.525 42.5592 16.7216 42.3198C17.1374 41.7724 17.6925 41.3451 18.3297 41.082C18.9269 40.8118 19.5527 40.6092 20.1954 40.478C19.9449 40.9065 19.5467 41.23 19.0745 41.3887C18.7929 41.5361 18.5045 41.6832 18.211 41.8061C17.893 41.9443 17.6219 42.171 17.4304 42.4588C17.239 42.7467 17.1353 43.0835 17.1319 43.4286C17.1234 43.5016 17.1352 43.5777 17.1219 43.6494C17.083 43.8596 17.1024 44.1518 16.819 44.1669C16.5081 44.1835 16.5696 43.8642 16.516 43.6511C16.2611 43.7549 16.2581 44.0019 16.1485 44.1727C16.066 44.301 15.991 44.4578 15.8158 44.3768C15.5977 44.2759 15.6879 44.088 15.7552 43.9321C15.8502 43.7121 16.0702 43.5553 16.1121 43.1805Z" fill="#211F20"/>
<path id="Vector_15" d="M40.8247 37.2653C41.011 37.2474 41.1985 37.2835 41.3647 37.3692C41.5308 37.4549 41.6684 37.5866 41.761 37.7483C42.1849 38.2883 42.6149 38.8245 43.0155 39.3814C43.848 40.5387 44.8356 41.5787 45.6108 42.7783C46.1415 43.5996 46.6618 44.4275 47.2161 45.2984C46.8047 45.4268 46.6644 45.2364 46.4974 44.9599C46.0306 44.0687 45.4723 43.2279 44.8315 42.4509C45.2248 43.4531 45.7132 44.4157 46.29 45.3258C46.0613 45.5166 45.9811 45.3773 45.8965 45.2562C45.388 44.5901 44.9631 43.8649 44.6312 43.0965C44.1132 41.8771 43.4439 40.7269 42.639 39.6727C42.4547 39.4122 42.2733 39.1488 42.1074 38.8766C41.7872 38.263 41.3518 37.7161 40.8247 37.2653Z" fill="#211F20"/>
<path id="Vector_16" d="M62.1721 53.0504C62.4048 53.1373 62.3901 53.3365 62.3727 53.4927C62.3117 54.7696 62.3583 56.0493 62.512 57.3184C62.5437 58.0314 62.4537 58.7445 62.246 59.4276C62.1599 59.726 61.9891 60.0157 62.1421 60.3548C62.1578 60.4136 62.1585 60.4753 62.144 60.5344C62.1295 60.5935 62.1003 60.648 62.0592 60.6929C61.8813 60.8254 61.7427 61.0033 61.6583 61.2077C61.5739 61.4122 61.5467 61.6356 61.5796 61.8542C61.585 61.994 61.55 62.1694 61.3402 62.1423C61.1783 62.1214 61.2023 61.9691 61.1785 61.8525C61.1498 61.5813 61.1965 61.3074 61.3134 61.0607C61.5628 60.3396 61.6744 59.5784 61.6426 58.8165C61.6468 58.1525 61.6918 57.4894 61.7776 56.8309C61.8689 55.8521 61.8636 54.8715 61.8685 53.8905C61.843 53.7363 61.8574 53.5782 61.9106 53.4312C61.9637 53.2842 62.0537 53.1531 62.1721 53.0504Z" fill="#211F20"/>
<path id="Vector_17" d="M51.3729 46.726C51.3437 47.1433 51.4071 47.5619 51.5586 47.9522C51.7101 48.3425 51.946 48.6949 52.2496 48.9846C52.3492 49.0903 52.4428 49.2015 52.53 49.3176C52.543 49.35 52.5482 49.3849 52.5453 49.4196C52.5424 49.4543 52.5314 49.4879 52.5133 49.5177C52.4994 49.5382 52.4805 49.555 52.4585 49.5664C52.4364 49.5779 52.4118 49.5837 52.3869 49.5833C52.362 49.5829 52.3376 49.5763 52.3159 49.5642C52.2942 49.552 52.2759 49.5347 52.2627 49.5137C51.6066 48.5355 50.5612 47.7803 50.5545 46.4273C50.5526 46.0476 50.4316 45.6591 50.4258 45.2659C50.4152 44.8242 50.3011 44.3911 50.0928 44.0009C49.8844 43.6106 49.5874 43.2741 49.2254 43.018C48.9882 42.8298 48.4777 42.6079 48.6508 42.3904C48.8822 42.0997 49.1536 42.5897 49.4003 42.7326C49.7356 43.0122 50.0925 43.265 50.4678 43.4887C50.7125 43.5866 50.7978 43.9092 50.8899 44.1607C51.2627 44.9626 51.4287 45.8443 51.3729 46.726Z" fill="#211F20"/>
<path id="Vector_18" d="M44.174 55.6258C43.7347 55.6717 43.2921 55.5781 42.9097 55.3583C42.5273 55.1385 42.2248 54.8038 42.0455 54.4024C41.3422 53.2798 40.5209 52.2347 39.5955 51.2847C39.3467 51.0369 38.9392 51.0923 38.7173 50.7492C39.0631 50.5393 39.324 50.7541 39.5454 50.884C40.5406 51.4428 41.3628 52.2621 41.9227 53.253C42.0901 53.5502 42.3057 53.8178 42.5608 54.0452C43.1118 54.558 43.6378 55.0973 44.174 55.6258Z" fill="#211F20"/>
<path id="Vector_19" d="M28.1142 32.9692C28.3359 32.9079 28.5701 32.9065 28.7925 32.9652C29.015 33.0239 29.2177 33.1404 29.3797 33.3029C29.7268 33.5338 30.1389 33.6485 30.556 33.6303C30.8035 33.6364 31.0515 33.6418 31.2988 33.6343C32.1118 33.6098 32.7831 33.791 32.9205 34.7577C32.6577 34.955 32.4118 34.7589 32.2455 34.5787C32.0437 34.3822 31.7977 34.2363 31.5279 34.1532C31.2581 34.0701 30.9722 34.0521 30.694 34.1008C30.3017 34.1545 29.9021 34.1112 29.5305 33.9747C29.159 33.8383 28.8269 33.613 28.5638 33.3186C28.4544 33.182 28.2218 33.2456 28.1142 32.9692Z" fill="#211F20"/>
<path id="Vector_20" d="M23.3158 30.713C23.06 30.682 22.9981 31.0264 22.7545 30.8956C23.3947 30.1905 24.0708 29.5184 24.7801 28.8819C24.8874 28.8355 24.9995 28.7548 25.1271 28.8667C25.2037 29.1092 24.9501 29.0956 24.8584 29.2087C24.6822 29.4259 24.1464 29.4716 24.4827 29.9592C24.5636 30.0765 24.3871 30.129 24.3151 30.1324C23.9309 30.1506 23.8236 30.4334 23.7555 30.7201C23.6747 31.1718 23.4321 31.5791 23.0726 31.8667C22.713 32.1542 22.2609 32.3025 21.7999 32.2841C21.6051 32.3116 21.4245 32.4013 21.2852 32.5396C21.2499 32.5743 21.2027 32.5946 21.1531 32.5964C21.1034 32.5982 21.0549 32.5814 21.0171 32.5494C20.9123 32.4426 20.9869 32.3059 21.0459 32.2188C21.1638 32.0445 21.3721 32.0303 21.5667 31.9891C21.9837 31.9518 22.3871 31.8218 22.7469 31.6087C22.9083 31.5172 23.0446 31.3877 23.1438 31.2315C23.243 31.0753 23.3021 30.8972 23.3158 30.713Z" fill="#211F20"/>
<path id="Vector_21" d="M62.8167 57.4001C62.7825 56.9809 62.9041 56.5638 63.1584 56.2277C63.6465 55.3147 63.8827 54.2894 63.843 53.2562C63.8048 52.9638 63.857 52.6668 63.9925 52.4045C64.128 52.1423 64.3406 51.9273 64.6019 51.788C64.827 51.6378 65.0355 51.4645 65.224 51.2708C65.25 51.2452 65.2846 51.2301 65.3212 51.2285C65.3578 51.227 65.3936 51.2391 65.4216 51.2625C65.44 51.2793 65.4547 51.2997 65.4648 51.3223C65.4749 51.3449 65.4803 51.3694 65.4805 51.3942C65.4808 51.419 65.4759 51.4436 65.4663 51.4664C65.4566 51.4892 65.4423 51.5099 65.4243 51.527C65.3535 51.5941 65.2697 51.646 65.1779 51.6795C64.9106 51.8101 64.6857 52.0128 64.5288 52.2645C64.3719 52.5162 64.2894 52.8068 64.2907 53.1029C64.2503 53.5422 64.1856 53.9793 64.1312 54.4173C64.1413 55.0234 63.9441 55.6148 63.572 56.0949C63.399 56.3618 63.2667 56.6529 63.1797 56.9584C63.1017 57.1256 63.097 57.3571 62.8167 57.4001Z" fill="#211F20"/>
<path id="Vector_22" d="M57.0173 50.7621C57.4583 50.7006 57.5528 51.2143 57.9367 51.1125C58.0114 51.0927 58.0477 51.3615 58.0464 51.5057C58.0554 52.0962 58.214 52.6748 58.5076 53.188C58.8185 53.773 58.7656 54.4764 59.1348 55.0424C59.1452 55.065 59.1508 55.0895 59.1514 55.1143C59.152 55.1392 59.1475 55.1639 59.1382 55.187C59.129 55.2101 59.1151 55.231 59.0974 55.2486C59.0798 55.2663 59.0587 55.2801 59.0355 55.2894C59.0011 55.304 58.9638 55.3106 58.9264 55.3086C58.8891 55.3066 58.8526 55.2961 58.82 55.278C58.7873 55.2598 58.7593 55.2344 58.738 55.2038C58.7168 55.1732 58.7029 55.1381 58.6974 55.1013C58.5507 54.3826 58.1389 53.7625 57.9774 53.0423C57.7815 52.2363 57.4574 51.4665 57.0173 50.7621Z" fill="#211F20"/>
<path id="Vector_23" d="M59.9622 48.5232C60.1912 48.4335 60.32 48.5578 60.455 48.6564C60.5739 48.7432 60.7067 48.9273 60.8032 48.9093C61.476 48.7834 61.3321 49.2541 61.3292 49.6002C61.3251 50.0896 61.293 50.5788 61.2697 51.0679C61.2759 51.1292 61.2593 51.1906 61.2231 51.2405C61.1868 51.2904 61.1335 51.3255 61.0731 51.339C61.012 51.353 60.9479 51.3426 60.8945 51.3099C60.8412 51.2772 60.8029 51.225 60.788 51.1645C60.6755 50.8418 60.3315 50.5756 60.5723 50.1655C60.9012 49.6053 60.6576 49.1899 60.198 48.8369C60.1075 48.7674 59.9755 48.7216 59.9622 48.5232Z" fill="#211F20"/>
<path id="Vector_24" d="M56.6711 45.1774C56.7286 44.9992 56.7692 44.7022 57.0238 44.9852C57.2038 45.2187 57.3301 45.4887 57.3938 45.7761C57.4575 46.0635 57.4571 46.3612 57.3925 46.6484C57.3688 46.857 56.9437 46.8966 56.7861 46.7119C56.7452 46.6513 56.7172 46.5831 56.7037 46.5114C56.5769 46.0668 56.4226 45.6335 56.255 45.2014C56.0302 44.7833 55.7694 44.3854 55.4755 44.0121C55.8614 43.9284 55.9942 44.2 56.1485 44.3869C56.3485 44.629 56.5112 44.9016 56.6903 45.1609C56.6936 45.4777 56.7966 45.7855 56.9848 46.0412C56.9946 45.6367 57.0665 45.3238 56.6711 45.1774Z" fill="#211F20"/>
<path id="Vector_25" d="M23.5481 32.5866C23.6085 32.4724 23.6189 32.434 23.6304 32.4336C24.4982 32.4075 25.3352 32.0967 26.211 32.1543C26.4158 32.1678 26.7446 32.082 26.733 32.3899C26.7263 32.5257 26.6669 32.6537 26.5672 32.7468C26.4676 32.8399 26.3354 32.8909 26.1987 32.889C25.9025 32.8982 25.606 32.8889 25.311 32.8611C24.7161 32.8239 24.126 32.7319 23.5481 32.5866Z" fill="#211F20"/>
<path id="Vector_26" d="M67.3722 54.1898C67.526 54.5593 67.366 54.9592 67.6263 55.3523C67.8278 55.6565 67.438 56.0663 67.2237 56.3923C67.2052 56.4052 67.1838 56.4135 67.1614 56.4164C67.139 56.4192 67.1163 56.4166 67.0951 56.4088C67.0722 56.3993 67.0515 56.3853 67.0342 56.3676C67.0169 56.3499 67.0034 56.3289 66.9946 56.3059C66.9858 56.2829 66.9817 56.2583 66.9828 56.2336C66.9838 56.209 66.9899 56.1848 67.0006 56.1626C67.1099 55.9253 67.3003 55.7155 67.2437 55.4029C66.8077 55.7683 66.8096 56.3877 66.3659 56.8025C66.5157 55.8717 66.8584 54.982 67.3722 54.1898Z" fill="#211F20"/>
<path id="Vector_27" d="M25.1203 37.0807C25.5141 37.9659 24.9876 38.5812 24.5464 39.2149C24.4827 39.2894 24.3974 39.3428 24.3022 39.3676C24.2327 39.3782 24.1618 39.3616 24.1044 39.3214C24.0882 39.3124 24.0742 39.2999 24.0635 39.2848C24.0529 39.2697 24.0457 39.2525 24.0427 39.2343C24.0396 39.2161 24.0407 39.1974 24.0459 39.1797C24.0511 39.162 24.0603 39.1457 24.0727 39.132C24.5027 38.6003 24.7777 37.9615 24.8678 37.2852C24.8966 37.2189 24.9373 37.1584 24.9878 37.1065C24.9992 37.0922 25.0339 37.0963 25.1203 37.0807Z" fill="#211F20"/>
<path id="Vector_28" d="M27.5415 36.6109C27.2745 36.8248 27.1036 36.651 26.9849 36.5272C26.5335 36.0751 25.9457 35.7824 25.3112 35.6937C25.1909 35.672 25.0465 35.6434 25.0678 35.4839C25.0893 35.3229 25.2415 35.3243 25.3584 35.3473C25.794 35.3829 26.2161 35.5149 26.5938 35.7335C26.9715 35.9521 27.2953 36.2519 27.5415 36.6109Z" fill="#211F20"/>
<path id="Vector_29" d="M64.5939 64.0213C63.6842 64.0574 62.7829 63.8353 61.9954 63.3809C62.8773 63.5251 63.7463 63.7393 64.5939 64.0213Z" fill="#211F20"/>
<path id="Vector_30" d="M37.0888 42.3763C37.8719 42.5507 38.2899 43.1966 38.8225 43.6985C38.0917 43.4634 37.7048 42.7698 37.0888 42.3763Z" fill="#211F20"/>
<path id="Vector_31" d="M16.1479 41.545C16.1123 41.611 16.0548 41.6626 15.9851 41.6909C15.9154 41.7192 15.8379 41.7225 15.7661 41.7002C15.7225 41.696 15.6805 41.682 15.6432 41.6592C15.606 41.6364 15.5744 41.6054 15.5511 41.5687C15.5277 41.5319 15.5131 41.4903 15.5083 41.447C15.5036 41.4038 15.5089 41.36 15.5238 41.3191C15.5643 41.1518 15.7062 41.1723 15.8216 41.2014C15.9077 41.2119 15.9874 41.252 16.047 41.3147C16.1066 41.3775 16.1423 41.4589 16.1479 41.545Z" fill="#211F20"/>
<path id="Vector_32" d="M49.2607 29.9056C50.5543 30.838 52.1926 31.3266 53.1733 32.8294C52.8919 32.8272 52.6122 32.7855 52.3425 32.7054C51.6284 32.3525 50.8465 32.2013 50.1141 31.9085C49.8091 31.7866 49.5177 31.6577 49.4491 31.2891C49.405 31.0517 49.1999 31.0152 49.0211 30.9366C48.0981 30.5211 47.1215 30.2348 46.1194 30.086C46.0083 30.0703 45.8653 30.1167 45.8086 29.8588C46.1962 29.74 46.6104 29.737 46.9998 29.8501C47.5212 29.9955 48.039 30.1522 48.5613 30.2946C49.0172 30.4756 49.4526 30.7039 49.8604 30.9756C50.0939 31.098 50.3395 31.1975 50.6239 31.3276C50.6107 30.9327 50.3398 30.9016 50.1495 30.8034C49.4615 30.4643 48.8406 30.0045 48.3168 29.4461C48.2071 29.3127 48.079 29.1952 47.9364 29.0972C47.4167 28.7804 46.9187 28.4607 47.1492 27.6928C47.3203 27.6552 47.4911 27.8255 47.591 28.0051C48.1877 29.078 49.2651 29.3772 50.3165 29.732C50.5001 29.794 50.8851 29.7503 50.8002 30.0323C50.6774 30.4401 50.3983 30.0504 50.197 30.0224C49.9123 29.9634 49.6327 29.8824 49.3606 29.7804L49.2607 29.9056Z" fill="#211F20"/>
<path id="Vector_33" d="M74.1754 53.7931C73.8811 53.6714 73.6948 53.929 73.4674 53.8377C73.7309 53.479 73.7312 53.4801 74.5844 53.2391C75.061 53.1045 75.5146 52.9092 75.9758 52.7317C76.4122 52.5506 76.8279 52.3236 77.2158 52.0547C77.0996 51.7217 76.7399 51.6998 76.5563 51.4824C76.5222 51.4421 76.3927 51.4185 76.3645 51.4458C75.8116 51.9802 75.4273 51.4841 75.0046 51.2326C74.8792 51.175 74.781 51.0716 74.7304 50.9439C75.1861 50.7589 75.3813 51.3621 75.8058 51.2491C75.8309 51.2283 75.8507 51.2019 75.8637 51.172C75.9264 50.9921 75.6341 50.7685 75.8693 50.6405C76.1092 50.5099 76.2611 50.7553 76.4139 50.9057C76.5937 51.1088 76.8019 51.2852 77.0322 51.4295C77.1724 51.5054 77.2865 51.5944 77.3658 51.3691C77.3712 51.3446 77.3839 51.3223 77.4022 51.3052C77.4206 51.2881 77.4438 51.2769 77.4687 51.2731C77.4936 51.2694 77.5191 51.2733 77.5417 51.2843C77.5644 51.2953 77.5831 51.3129 77.5955 51.3347C78.0422 52.0392 78.4253 51.3467 79.005 51.3887C78.5398 50.7047 77.8524 50.2004 77.0579 49.9601C77.3979 49.6133 77.6746 49.8369 77.8754 49.9915C78.5868 50.5393 79.269 51.1247 80.0042 51.7304C79.5265 51.9513 79.0223 52.1103 78.5039 52.2037C77.2358 52.6184 76.0179 53.1716 74.8724 53.8533C74.5231 54.0358 74.1957 54.2591 73.8513 54.4514C73.6762 54.5428 73.4957 54.624 73.311 54.6944C73.2895 54.7061 73.2657 54.7129 73.2413 54.7143C73.2168 54.7157 73.1924 54.7117 73.1697 54.7025C73.147 54.6933 73.1267 54.6792 73.1102 54.6612C73.0937 54.6432 73.0814 54.6218 73.0743 54.5985C73.0355 54.5089 73.0991 54.4557 73.1584 54.4187C73.3046 54.3274 73.4621 54.2537 73.6073 54.161C73.7925 54.0428 74.0231 53.9942 74.1754 53.7931Z" fill="#211F20"/>
<path id="Vector_34" d="M60.0904 38.0649C60.1147 38.4391 59.9254 38.5121 59.641 38.3384C59.3435 38.1648 59.0662 37.9589 58.8141 37.7247C58.2421 37.2579 57.6135 36.8642 56.9432 36.5526C56.4753 36.2813 55.9832 36.0512 55.5026 35.8014C54.9128 35.5366 54.4236 35.0912 54.1064 34.5304C53.9476 34.2189 53.6398 34.0283 53.4556 33.7074C53.7776 33.5691 53.9093 33.7678 54.0796 33.9509C54.5645 34.5732 55.1717 35.0907 55.8644 35.4719C56.2533 35.6678 56.6767 35.7872 57.1112 35.8235C57.1332 35.0405 57.8427 34.5055 57.7974 33.6876C58.1927 33.7184 58.2541 33.9288 58.1507 34.1956C58.0361 34.4915 57.8783 34.7709 57.7398 35.0577C57.6014 35.3446 57.4374 35.6309 57.7314 35.9842C57.9343 35.8429 57.9219 35.6075 57.9914 35.4248C58.0871 35.1736 58.1518 34.9109 58.2467 34.6595C58.2528 34.6356 58.2638 34.6133 58.2789 34.5938C58.294 34.5743 58.313 34.5581 58.3347 34.5462C58.3563 34.5343 58.3802 34.527 58.4048 34.5246C58.4295 34.5222 58.4543 34.5248 58.4779 34.5324C58.5139 34.5412 58.5452 34.5633 58.5656 34.5942C58.5859 34.6251 58.5938 34.6625 58.5876 34.6989C58.5205 35.2878 58.3494 35.8603 58.0822 36.3902C57.8734 36.6994 58.0003 36.7908 58.2128 36.8699C58.8944 37.1976 59.533 37.6071 60.1143 38.0894L60.0904 38.0649Z" fill="#211F20"/>
<path id="Vector_35" d="M60.1143 38.0894C60.2297 37.8269 59.6979 37.6924 59.9419 37.4692C60.1597 37.2701 60.4139 37.5344 60.597 37.6508C61.3143 38.1068 62.1735 38.2212 62.9048 38.6394C63.0432 38.7186 63.1506 38.8825 63.3883 38.8599C63.2154 38.2258 63.0887 37.5802 63.0094 36.928C63.0052 36.7474 62.9748 36.5864 63.1112 36.456C63.2038 36.3754 63.2793 36.2772 63.3332 36.1671C63.3871 36.0571 63.4185 35.9375 63.4253 35.8152C63.4371 35.6108 63.5688 35.391 63.7944 35.4543C64.0764 35.5334 63.9455 35.7673 63.8546 35.9369C63.6883 36.346 63.5937 36.7803 63.5749 37.2211C63.5414 38.0135 63.7924 38.792 64.2832 39.4173C64.5781 39.9316 64.5855 39.9274 64.3528 40.5525C63.8443 39.877 63.2054 39.309 62.4736 38.8819C61.7418 38.4547 60.9317 38.1769 60.0907 38.0647L60.1143 38.0894Z" fill="#211F20"/>
<path id="Vector_36" d="M52.005 25.5341C51.9192 26.1405 51.8752 26.1695 51.4276 25.9073C50.3629 25.2724 49.1465 24.9328 47.905 24.9238C47.8205 24.9231 47.7006 24.886 47.645 25.098C48.0016 25.2509 48.3709 25.409 48.7399 25.5675C49.3963 25.8495 50.0592 26.1179 50.7056 26.421C50.9625 26.506 51.2253 26.5724 51.4919 26.6196C51.6377 26.6378 51.7815 26.6696 51.9214 26.7145C52.059 26.7906 52.2749 26.8878 52.1962 27.0921C52.101 27.3392 51.9078 27.1649 51.756 27.1292C50.908 26.87 50.0789 26.5532 49.2746 26.1809C48.5096 25.8869 47.7403 25.6039 46.9883 25.2776C46.8327 25.21 46.6488 25.1971 46.5395 25.0376C46.4658 24.93 46.5496 24.788 46.5916 24.8116C47.037 25.0629 47.2683 24.5399 47.6365 24.5439C48.2051 24.5252 48.7733 24.591 49.3224 24.7393C50.1925 25.0148 51.0546 25.3152 51.9187 25.606C51.9387 25.5732 51.969 25.5479 52.005 25.5341Z" fill="#211F20"/>
<path id="Vector_37" d="M65.5294 44.0219C65.3583 43.7654 64.9856 43.6805 64.8667 43.1862C65.7747 43.637 66.5525 44.1049 67.4735 44.4561C67.3134 43.9618 66.8675 43.8002 66.6528 43.3686C66.8289 43.4053 66.996 43.4764 67.1443 43.5777C67.2926 43.6789 67.4193 43.8085 67.517 43.9588C68.025 44.5647 68.6879 45.0233 69.436 45.2861C69.9706 45.4439 69.808 45.9747 69.9874 46.3198C70.0198 46.3821 69.992 46.5575 70.0845 46.6186C70.6996 47.0249 71.1151 47.6663 71.7789 48.0462C71.579 48.3185 71.4191 48.1385 71.2648 47.9869C70.262 47.0016 69.1289 46.1688 68.0526 45.2696C67.2439 44.7713 66.3916 44.3467 65.506 44.001L65.5294 44.0219Z" fill="#211F20"/>
<path id="Vector_38" d="M51.7895 35.0521C52.5536 35.9174 53.7132 36.0952 54.622 36.7032C55.1916 37.0842 55.7928 37.4162 56.3287 37.8513C56.7449 38.1891 57.1926 38.4883 57.623 38.8092C57.7843 38.9295 57.9624 39.0712 57.7759 39.2858C57.6164 39.4695 57.4532 39.3226 57.3285 39.2161C56.2395 38.334 55.04 37.5961 53.76 37.0208C53.1893 36.6822 52.6512 36.2919 52.1525 35.855C52.0309 35.7606 51.9343 35.6382 51.8711 35.4983C51.8078 35.3584 51.7798 35.2052 51.7895 35.0521Z" fill="#211F20"/>
<path id="Vector_39" d="M37.4359 28.2176C37.3821 28.3253 37.2971 28.4145 37.1918 28.4736C37.0866 28.5328 36.9659 28.5592 36.8454 28.5495C36.0051 28.5545 35.1758 28.36 34.4264 27.9819C33.2954 27.4434 32.0921 27.0702 30.8538 26.874C30.7273 26.8605 30.5111 26.8888 30.5711 26.6566C30.6111 26.5021 30.7534 26.4649 30.9253 26.4802C32.3144 26.6573 33.6799 26.9844 34.9978 27.4557C35.1767 27.5119 35.4469 27.5381 35.3586 27.8808C35.319 28.0343 35.5271 28.018 35.6296 28.053C36.0046 28.1795 36.4043 28.2164 36.7962 28.1607C37.0141 28.1181 37.2398 28.1409 37.4445 28.2263L37.4359 28.2176Z" fill="#211F20"/>
<path id="Vector_40" d="M54.4952 28.4367C55.0363 28.546 55.5523 28.7547 56.0164 29.0521C56.4922 29.2645 56.731 29.7928 57.3446 30.1176C57.1707 29.7417 56.921 29.4054 56.611 29.1296C56.301 28.8537 55.9372 28.6442 55.5423 28.514C55.6703 28.4206 55.8262 28.3728 55.9849 28.3786C56.1436 28.3844 56.2956 28.4433 56.4164 28.5458C57.0098 28.987 57.5161 29.5335 57.9098 30.1576C58.3032 30.6194 58.5613 31.2205 59.2265 31.3991C59.2509 31.4042 59.2738 31.4147 59.2937 31.4298C59.3135 31.4448 59.3296 31.4641 59.341 31.4862C59.3523 31.5083 59.3585 31.5327 59.3591 31.5575C59.3598 31.5823 59.3548 31.6069 59.3446 31.6296C59.3234 31.6739 59.2859 31.7085 59.2398 31.7261C59.1938 31.7438 59.1426 31.7432 59.097 31.7246C59.024 31.7109 58.9538 31.6852 58.8894 31.6483C57.9844 31.1967 57.1617 30.5975 56.4557 29.8755C56.1784 29.5624 55.8343 29.3148 55.4485 29.1507C55.1328 28.9858 54.7382 28.9095 54.4952 28.4367Z" fill="#211F20"/>
<path id="Vector_41" d="M73.1418 56.548C73.4436 56.3529 73.7144 56.114 73.945 55.8392C74.1023 55.6994 74.2885 55.5956 74.4904 55.5349C74.6924 55.4743 74.9052 55.4582 75.114 55.488C75.3352 55.4936 75.5564 55.4988 75.7777 55.4999C75.9468 55.5008 76.0775 55.4457 76.033 55.2447C76.0098 55.1612 76.0179 55.0723 76.0556 54.9943C76.0934 54.9163 76.1583 54.8545 76.2383 54.8205C77.1177 54.2748 78.088 53.8897 79.1036 53.6832C79.144 53.6768 79.1915 53.713 79.3427 53.7689C78.6209 54.052 77.9751 54.3023 77.3322 54.5595C77.1492 54.6329 76.9712 54.7178 76.7992 54.8139C76.7211 54.8574 76.6051 54.9141 76.6419 55.0318C76.8019 55.5429 76.3992 55.6995 76.0776 55.8112C75.1345 56.139 74.1719 56.4113 73.2169 56.7053L73.1418 56.548Z" fill="#211F20"/>
<path id="Vector_42" d="M46.6183 32.7853C48.3899 32.9581 50.0926 33.5567 51.5799 34.5294L51.5185 34.7009C51.0839 34.5676 50.6465 34.4425 50.2153 34.2993C49.4169 34.034 48.6044 33.8245 47.7865 33.6282C47.5372 33.5936 47.3004 33.4986 47.0967 33.3516C46.893 33.2046 46.7287 33.0102 46.6183 32.7853Z" fill="#211F20"/>
<path id="Vector_43" d="M81.5814 55.3799C81.5162 55.0366 81.4689 54.6902 81.4396 54.3421C81.4927 53.6149 81.5086 52.8855 81.4874 52.1566C81.5262 51.8655 81.5781 51.5769 81.6431 51.2907C81.6045 51.0854 81.5312 50.8882 81.4263 50.7073C80.5481 49.2238 79.4833 47.8577 78.2577 46.642C76.5437 45.0478 74.9197 43.3604 73.3932 41.5876C72.954 41.0237 72.4735 40.4927 71.9557 39.9991C71.3597 39.4515 70.7393 38.9068 70.2021 38.3247C69.37 37.415 68.7348 36.345 68.3357 35.1811C68.1694 34.5659 67.9163 33.9771 67.5841 33.4324C67.3009 33.0314 67.0506 32.6083 66.8357 32.1673C66.5445 31.5153 66.1272 30.9265 65.6076 30.4345C65.2195 30.093 64.8595 29.721 64.5311 29.3223C63.8337 28.6093 62.9906 28.0532 62.0588 27.6917C61.5185 27.5207 60.9997 27.2888 60.5124 27.0006C59.9922 26.4785 59.3773 26.059 58.7002 25.7643C58.6055 25.7309 58.5212 25.6737 58.4555 25.5981C58.3898 25.5226 58.345 25.4314 58.3255 25.3334C58.281 25.0825 58.0909 25.0413 57.8963 24.9959C56.9686 24.6909 56.0666 24.3133 55.1988 23.8668C55.0638 23.8122 54.8738 23.7418 54.8326 23.6326C54.5914 22.9942 53.9765 22.9084 53.4666 22.7814C50.9196 22.1471 48.3825 21.6275 45.7081 22.2127C44.0631 22.5356 42.4405 22.963 40.8505 23.4922C39.5919 23.9413 38.277 24.2152 36.943 24.3061C35.734 24.3878 34.5189 24.3847 33.3108 24.475C31.8263 24.4789 30.345 24.6123 28.8839 24.8736C28.5241 24.9591 28.1588 25.0195 27.7905 25.0544C25.659 25.3465 23.5734 25.9069 21.5839 26.722C20.5895 27.2391 19.5143 27.585 18.4038 27.745C18.3296 27.7558 18.2606 27.789 18.2061 27.8402C17.5736 28.2239 17.0244 28.7292 16.5907 29.3266C16.4794 29.5361 16.3603 29.7005 16.0756 29.6274C15.9895 29.6078 15.899 29.621 15.8222 29.6645C15.7454 29.708 15.6878 29.7786 15.6607 29.8623C15.3946 30.5219 15.0921 31.1664 14.7544 31.7927C14.7188 31.858 14.7086 31.9339 14.7257 32.0062C14.762 32.2759 14.7163 32.5502 14.5945 32.7939C14.2261 33.889 13.8801 34.9899 13.5987 36.111C13.5341 36.5231 13.4082 36.9233 13.2251 37.2985C12.5288 38.4601 11.7301 39.5578 10.8385 40.5789C10.2608 41.2086 9.87198 41.9866 9.71622 42.8247C9.5222 43.886 9.63332 44.9801 10.0368 45.9813C10.3563 46.8857 10.5865 47.8188 10.724 48.7676C10.7586 49.0719 10.8549 49.3661 11.007 49.6325C11.1592 49.8988 11.3641 50.1316 11.6093 50.317C12.0973 50.6564 12.5255 51.0738 12.8766 51.5522C13.4536 52.3653 14.3218 52.928 15.3029 53.1246C16.0924 53.3256 16.8545 53.621 17.5725 54.0043C18.3073 54.4086 19.094 54.7113 19.9109 54.9042C20.4017 55.0101 20.9046 55.0126 21.0715 55.6886C21.1978 55.3066 21.3461 55.1714 21.7148 55.3249C22.8067 55.7798 23.9787 56.0337 25.0335 56.5821C25.8214 56.9947 26.6482 57.3293 27.5019 57.5813C27.8823 57.6926 28.2616 57.7811 28.2557 58.462C28.5992 57.9188 28.8925 58.0259 29.1894 58.2462C29.2906 58.3523 29.4213 58.426 29.5649 58.4578C30.2722 58.5771 30.9459 58.8445 31.5414 59.2423C32.3977 59.7338 33.2472 60.2354 34.1358 60.6684C35.4528 61.2908 36.714 62.0238 37.9056 62.8595C38.4748 63.333 39.1025 63.7323 39.7735 64.0474C40.9678 64.5085 42.0541 65.188 43.2762 65.6135C44.558 66.0599 45.8332 66.5235 47.1341 66.9153C49.3577 67.4834 51.546 68.1798 53.688 69.0011C53.8224 69.0618 53.9746 69.071 54.1153 69.0268C54.7208 68.8814 55.3546 68.9017 55.9495 69.0857C56.7139 69.3013 57.5204 69.3232 58.2955 69.1494C58.4129 69.1226 58.5806 69.0311 58.6484 69.2566C58.7415 69.5666 58.9799 69.5463 59.2431 69.5158C59.7449 69.414 60.2607 69.4004 60.7673 69.4754C61.1933 69.5669 61.7051 69.1343 62.2153 69.1246C63.3512 69.0688 64.4802 68.918 65.5906 68.6738C66.2186 68.5448 66.8304 68.3473 67.4149 68.0849C67.6966 67.9643 68.0155 67.8659 68.1471 67.5122C68.1878 67.4027 68.3736 67.3281 68.5079 67.2742C69.8863 66.7207 71.0016 65.7038 72.3926 65.1491C73.2546 64.8054 74.0528 64.2856 74.923 63.9284C75.5668 63.6721 76.1747 63.3343 76.7318 62.9235C77.0182 62.6974 77.3173 62.4876 77.6276 62.2952C78.164 62.0495 78.6792 61.7605 79.1679 61.4308C79.7063 60.9722 80.1461 60.4104 80.4612 59.7789C80.7763 59.1475 80.9601 58.4593 81.0018 57.7556C81.0547 57.2181 81.1618 56.6873 81.3212 56.171C81.3601 56.1069 81.3813 56.0337 81.3825 55.9588C81.4445 55.7642 81.5109 55.5712 81.5814 55.3799ZM75.7496 45.406C75.114 44.8177 74.1242 44.864 73.5666 44.1642C74.4125 44.3263 75.1803 44.7631 75.7496 45.406ZM75.3742 45.5493C74.9936 45.5889 74.6102 45.5956 74.2284 45.5696L74.1349 45.0086C74.5781 45.1111 74.9983 45.2945 75.3742 45.5493ZM74.1952 44.0002C73.3541 43.496 72.4006 43.6131 71.7995 42.8912C71.7544 42.8371 71.7192 42.7747 71.5732 42.56C72.6201 42.8576 73.5859 42.9187 74.1952 44.0002ZM72.978 44.8291C72.3669 44.7041 72.0714 44.2475 71.6815 43.8309C72.2103 44.0163 72.665 44.3664 72.978 44.8291ZM72.7727 42.5239C72.1597 42.3755 71.5863 42.2601 71.0287 42.0924C70.7136 41.9977 70.5768 41.6589 70.3446 41.4449C70.2846 41.3713 70.2428 41.2846 70.2225 41.192C70.2023 41.0994 70.2042 41.0033 70.2281 40.9115C70.7683 40.883 71.304 41.0231 71.7602 41.3122C72.2164 41.6013 72.5705 42.0249 72.7727 42.5239ZM71.1205 40.5556C70.3729 40.6724 70.0744 40.5334 69.774 39.8408C70.3411 40.025 70.841 40.072 71.1205 40.5556ZM70.3969 39.677C69.9185 39.6092 69.6727 39.4392 69.6825 38.9537C69.9948 39.1093 70.2461 39.3637 70.3969 39.677ZM69.4873 40.3309C69.2544 40.2165 69.0343 40.078 68.8307 39.9175C68.7797 39.8779 68.7834 39.725 68.8113 39.6401C68.8453 39.537 68.9657 39.5302 69.0614 39.5509C69.207 39.5818 69.34 39.6552 69.4433 39.7617C69.5467 39.8682 69.6157 40.003 69.6415 40.1488C69.6615 40.2731 69.5705 40.3711 69.4873 40.3309ZM68.5106 38.935C68.6079 38.56 68.2197 38.5337 68.0822 38.2925C68.3847 38.2822 68.6828 38.3664 68.9345 38.5335C69.0638 38.5965 69.1964 38.7026 69.1154 38.8791C69.0673 38.9837 69.0197 39.1161 68.8652 39.1153C68.7128 39.1145 68.4788 39.0572 68.5106 38.935ZM69.4975 38.377C68.9752 38.241 68.8443 37.8921 68.6554 37.4793C69.225 37.558 69.3194 37.9389 69.4975 38.377ZM67.3449 34.7952C67.8559 35.282 68.2294 35.8936 68.4281 36.569C67.8323 36.4181 67.2899 36.1069 66.8604 35.6695C67.1078 35.5691 67.2654 35.8187 67.4477 35.7209C67.2299 35.4144 67.2299 35.4144 66.8262 35.2634C65.9777 35.0267 65.2449 34.4911 64.7645 33.7564C65.7679 34.06 66.7364 34.1391 67.3449 34.7952ZM66.7909 34.0746C66.0044 33.87 65.2548 33.6418 64.5009 33.4428C64.2855 33.3673 64.0902 33.2441 63.9298 33.0826C63.7693 32.921 63.6479 32.7253 63.5748 32.5102C63.8595 32.4876 64.1452 32.5412 64.4022 32.6653C65.0012 32.8935 65.612 33.0805 66.2297 33.2492C66.5366 33.333 66.5567 33.3715 66.7909 34.0746ZM64.3611 32.2555C63.8857 32.3278 63.4 32.2292 62.9911 31.9774C62.5823 31.7256 62.2771 31.337 62.1304 30.8816C62.5818 30.9306 63.0163 31.0795 63.4023 31.3172C63.7883 31.5549 64.1159 31.8755 64.3611 32.2555ZM64.3463 31.3955C65.3553 31.375 65.6293 32.18 66.0975 32.8979C65.6683 32.9157 65.2484 32.7703 64.9231 32.4912C64.5978 32.2122 64.3916 31.8204 64.3463 31.3955ZM65.9299 31.5156C65.4103 31.3945 65.2916 30.9709 65.081 30.6359C65.3863 30.8688 65.8098 31.007 65.9299 31.5156ZM64.7079 31.025C64.0002 31.0599 63.8014 30.9435 63.2792 30.1576C63.5772 30.1441 63.8724 30.2194 64.127 30.374C64.3816 30.5285 64.5839 30.7552 64.7079 31.025ZM63.4402 29.7153C62.7723 29.8307 62.5227 29.6834 62.0834 28.9046C62.6541 29.0363 62.9598 29.4911 63.4402 29.7153ZM61.7107 29.3201C61.2908 29.2353 61.0716 28.9021 60.6739 28.6392C61.3208 28.549 61.4789 28.9971 61.7107 29.3201ZM59.4652 26.921C58.7239 27.0636 58.448 26.4412 58.0194 26.1315C58.3025 26.1554 58.5774 26.2379 58.8264 26.3739C59.0754 26.5099 59.293 26.6963 59.4652 26.921ZM52.9256 24.0889C53.5609 24.4274 54.1937 24.7703 54.8242 25.1176C54.8463 25.129 54.8659 25.1448 54.8817 25.1639C54.8975 25.1831 54.9092 25.2052 54.9161 25.229C54.923 25.2528 54.925 25.2777 54.9219 25.3023C54.9188 25.3269 54.9107 25.3506 54.8981 25.372C54.8418 25.4802 54.7467 25.4471 54.6471 25.4136C53.9482 25.095 53.3012 24.6742 52.7277 24.1651C52.8396 24.1202 52.8987 24.0746 52.9256 24.0889ZM52.3759 22.9228C51.6202 22.9962 50.8589 22.8601 50.1762 22.5296C50.9285 22.5135 51.6764 22.6472 52.3759 22.9228ZM18.7008 28.687C18.2502 29.4854 18.2502 29.4854 17.5597 29.4062C17.8594 29.0586 18.2568 28.8082 18.7008 28.687ZM16.0544 30.7636C16.1225 31.3639 15.6891 31.6897 15.4097 32.2416C15.3967 31.9627 15.4481 31.6845 15.5598 31.4283C15.6715 31.1722 15.8407 30.9448 16.0544 30.7636ZM17.5441 30.1363C17.4893 30.5312 17.4952 30.9012 17.0761 31.1919C16.8681 31.3253 16.6971 31.5086 16.579 31.7249C16.4609 31.9412 16.3994 32.1836 16.4002 32.4297C16.4083 32.501 16.3947 32.5731 16.3613 32.6368C16.3279 32.7004 16.2761 32.7526 16.2126 32.7868C16.0502 32.8933 15.918 33.0442 15.7649 33.1661C15.7085 33.2021 15.6602 33.2494 15.6232 33.3051C15.5861 33.3607 15.5612 33.4233 15.5499 33.4891C15.5386 33.5548 15.5413 33.6222 15.5577 33.6868C15.5741 33.7515 15.6039 33.812 15.6451 33.8646C15.96 34.4468 16.3569 34.9813 16.8238 35.4519C16.9238 35.5567 17.0125 35.6721 17.1446 35.8275C16.0771 36.1228 14.9449 36.1305 14.0472 37.1251C14.8038 34.4527 15.6589 32.0399 17.5441 30.1363ZM16.8124 34.784C17.211 34.9385 17.5681 35.1827 17.8557 35.4976C17.2822 35.5822 17.0608 35.2804 16.8124 34.784ZM13.6519 51.3881C13.4051 51.0547 13.2389 50.6692 13.1664 50.2615C13.7121 50.6209 13.7492 50.7229 13.6519 51.3881ZM14.2037 51.5284C14.3046 51.4818 14.4163 51.4636 14.5268 51.4757C14.6374 51.4878 14.7424 51.5297 14.8307 51.597C15.3043 51.9841 15.8587 52.2614 16.4537 52.4088C16.0358 52.4441 15.6154 52.3831 15.2251 52.2304C14.8349 52.0777 14.4853 51.8374 14.2037 51.5284ZM17.4747 53.2113C17.3912 53.1594 17.3032 53.0991 17.3313 52.9822C17.3679 52.8289 17.5037 52.8138 17.6234 52.8224C18.0495 52.8533 18.222 53.2055 18.4389 53.524C18.0943 53.5122 17.76 53.4038 17.4747 53.2113ZM22.0949 53.6719C21.9167 53.3734 21.8386 53.3296 21.6873 53.7083C21.6021 53.9216 20.749 53.8187 20.6725 53.5957C20.498 53.2815 20.4286 52.9202 20.4745 52.5642C21.106 52.7515 21.7112 53.0173 22.2757 53.3552C22.389 53.4217 22.5858 53.4801 22.4076 53.6677C22.3149 53.7652 22.1745 53.8053 22.0949 53.6719ZM23.9189 54.093C24.7043 54.2614 25.4431 54.4201 25.3523 55.432C24.3399 55.3314 23.8802 54.9188 23.9189 54.093ZM25.1816 53.4138C25.1612 53.2899 25.2788 53.2407 25.3749 53.2504C25.6637 53.2794 25.9739 53.2518 26.1995 53.4955C26.1336 53.5976 25.9527 53.544 25.9233 53.6858C25.8863 53.8638 26.0297 53.8674 26.1465 53.8939C26.3374 53.9373 26.5259 53.9943 26.7187 54.0261C27.3651 54.1327 27.3657 54.1294 27.3704 54.9261C26.75 54.8108 26.1509 54.6023 25.5936 54.3079C25.2494 54.1406 25.2366 53.7485 25.1816 53.4138ZM25.4703 54.6306C26.0329 54.8199 26.4632 54.9836 26.9046 55.1084C27.0341 55.1339 27.1571 55.1852 27.2662 55.2593C27.3753 55.3333 27.4682 55.4286 27.5393 55.5393C27.6103 55.65 27.6582 55.7738 27.6798 55.9034C27.7015 56.033 27.6965 56.1655 27.6653 56.2932C27.0913 56.1058 26.5684 55.9664 26.0717 55.7637C25.614 55.5769 25.6849 55.0955 25.4703 54.6306ZM26.6912 56.6926C26.6315 56.6464 26.5629 56.599 26.5842 56.5261C26.6018 56.4655 26.6645 56.3774 26.7135 56.3731C27.0418 56.3449 27.3128 56.5514 27.6225 56.6135C27.8307 56.6552 27.9626 56.7953 27.9576 57.1125C27.5089 57.0698 27.0759 56.9262 26.6912 56.6926ZM28.041 56.2561C27.9994 56.1652 27.9781 56.0665 27.9786 55.9666C27.9791 55.8668 28.0013 55.7682 28.0439 55.6778C28.153 55.6766 28.2608 55.7026 28.3574 55.7533C28.4539 55.804 28.5362 55.8779 28.5968 55.9683C28.6566 56.0316 28.7007 56.108 28.7254 56.1914C28.7502 56.2747 28.7549 56.3627 28.7393 56.4482C28.713 56.5658 28.6101 56.5873 28.5084 56.5668C28.3112 56.5272 28.1047 56.4708 28.041 56.2561ZM28.7402 57.4637C28.4978 57.4437 28.3317 57.3456 28.31 57.0813C28.2983 56.9398 28.3459 56.8389 28.5022 56.8709C28.6177 56.881 28.7245 56.9357 28.7999 57.0233C28.8752 57.1109 28.9129 57.2243 28.905 57.3393C28.8995 57.398 28.8695 57.4744 28.7402 57.4637ZM29.9851 57.7618C29.7073 57.6448 29.286 57.7032 29.2793 57.1761C29.5738 57.1895 29.8608 57.2729 30.1162 57.4194C30.1573 57.4457 30.1883 57.485 30.2042 57.531C30.2202 57.5769 30.2201 57.6269 30.204 57.6728C30.1736 57.8008 30.083 57.803 29.9851 57.7618ZM30.8356 57.2673C30.7629 57.2874 30.6852 57.2796 30.6179 57.2457C30.5506 57.2117 30.4985 57.1539 30.4718 57.0837C30.4349 56.9675 30.4077 56.8485 30.3906 56.7278C30.3658 56.6163 30.2871 56.5301 30.1855 56.5927C29.8952 56.7713 29.7836 56.5224 29.6484 56.3775C29.3071 55.9287 28.8341 55.5964 28.2948 55.4265C28.1518 55.3827 28.0232 55.3016 27.9223 55.1918C27.8121 55.1086 27.7365 54.9879 27.7102 54.8528C27.6839 54.7177 27.7086 54.5776 27.7796 54.4595C27.9609 54.1948 28.1882 54.4429 28.3724 54.5095C28.6648 54.6451 28.9245 54.8414 29.134 55.0853C29.574 55.5858 30.091 56.0137 30.6658 56.3531C30.9406 56.489 30.9695 56.715 30.9462 57.0882C30.9468 57.0834 31.0135 57.233 30.8356 57.2673ZM31.2984 57.0066C31.2818 56.9741 31.2724 56.9384 31.2706 56.902C31.2689 56.8656 31.2749 56.8292 31.2883 56.7953C31.3376 56.6927 31.4404 56.6897 31.5393 56.7375C31.8519 56.8886 32.191 57.0175 32.1573 57.5795C31.8094 57.5014 31.5031 57.2971 31.2984 57.0066ZM31.5959 57.976C31.6177 57.9496 31.6457 57.9291 31.6774 57.9162C31.7092 57.9033 31.7437 57.8985 31.7778 57.9023C32.1657 57.9944 32.5391 58.113 32.5701 58.676C32.2061 58.6266 31.8712 58.4514 31.6241 58.1811C31.6038 58.1514 31.5907 58.1174 31.5859 58.0818C31.581 58.0463 31.5844 58.0101 31.5959 57.976ZM32.9972 58.3187C33.4143 58.4801 33.8311 58.6266 34.2352 58.802C34.627 58.9721 34.5083 59.3895 34.6763 59.691C33.7466 59.6821 32.9475 59.0226 32.9972 58.3187ZM34.8281 59.1518C35.5286 59.2607 35.5286 59.2607 35.6962 60.4575C34.9756 60.2972 35.0476 59.6498 34.8281 59.1518ZM37.0401 60.9759C36.6713 60.9889 36.335 60.9119 36.2037 60.5201C36.0679 60.2644 35.9745 59.9885 35.9273 59.7031C36.725 59.6832 37.2199 60.0724 37.2816 60.7096C37.3019 60.9188 37.2077 60.9701 37.0401 60.9759ZM37.5366 60.3819C38.1202 60.4345 38.685 60.6144 39.1907 60.9089C39.622 61.1305 39.4871 61.6818 39.754 62.1797C38.1858 61.6782 37.9655 61.4973 37.5366 60.3819ZM42.3382 63.8258C43.2378 63.7551 43.4968 63.8978 43.7697 64.6605C43.2688 64.4246 42.7898 64.1453 42.3382 63.8258ZM44.0936 64.2291C44.4622 64.2404 44.8221 64.3437 45.1402 64.5295C44.489 64.8619 44.2895 64.8123 44.0936 64.2291ZM45.5814 65.9848C46.6348 65.8946 47.3142 66.4403 48.1902 66.6704C47.279 66.6454 46.386 66.4107 45.5814 65.9848ZM45.9493 65.1728C46.0268 65.1338 46.1125 65.1134 46.1995 65.1133C46.2864 65.1132 46.3722 65.1334 46.4499 65.1723C46.5845 65.2307 46.7401 65.3105 46.6808 65.4944C46.6293 65.6538 46.481 65.5827 46.3657 65.573C46.1959 65.5562 46.009 65.5759 45.935 65.3627C45.9115 65.295 45.8708 65.2152 45.9493 65.1728ZM47.4161 65.9368C47.3045 65.889 47.2068 65.8139 47.1322 65.7184C47.0927 65.682 47.0654 65.6344 47.0539 65.5821C47.0423 65.5297 47.0471 65.4752 47.0676 65.4256C47.0881 65.3761 47.1233 65.3339 47.1685 65.3048C47.2137 65.2757 47.2668 65.261 47.3206 65.2627C47.5383 65.2338 47.7632 65.2456 47.9764 65.1998C48.1476 65.151 48.3309 65.1655 48.4923 65.2406C48.6537 65.3158 48.7822 65.4464 48.8542 65.6085L48.8484 65.6047C48.7342 65.9383 49.1067 66.1705 49.0221 66.5553C48.4823 66.3491 47.9462 66.1503 47.4161 65.9368ZM61.9669 68.7733L61.9561 68.5639C62.7903 68.5101 63.6244 68.4563 64.4585 68.4025C63.661 68.6895 62.814 68.8155 61.9669 68.7733ZM62.8362 68.0837C62.2776 68.1599 61.7146 68.1996 61.1508 68.2023C60.8337 68.2455 60.5267 68.3435 60.2437 68.4919C59.7955 68.7306 59.3444 68.8869 58.9078 68.4615C58.8718 68.4279 58.8271 68.405 58.7787 68.3953C58.7304 68.3857 58.6802 68.3896 58.634 68.4067C57.4152 68.6261 56.1587 68.4912 55.0151 68.0182C54.7621 67.9458 54.519 67.6546 54.2693 68.0444C54.2346 68.0985 54.0327 68.0688 53.9152 68.0446C53.1711 67.8913 52.429 67.7285 51.6569 67.5626C52.006 67.3997 52.3129 67.7251 52.697 67.6166C52.563 67.3458 52.3364 67.3399 52.1422 67.3106C51.5309 67.2184 50.9184 67.1332 50.3045 67.0612C50.094 67.051 49.8914 66.9789 49.7223 66.8538C49.5532 66.7288 49.4254 66.5565 49.3551 66.359C49.2451 66.0905 49.1925 65.7543 48.8667 65.6164C48.939 65.4495 49.0339 65.3264 49.2523 65.3791C49.5474 65.4206 49.8263 65.5386 50.061 65.7214C50.2996 65.9377 50.5885 66.0916 50.9018 66.1693C51.215 66.247 51.5428 66.2461 51.8556 66.1666C52.3617 66.0493 52.8801 65.9933 53.3996 65.9996C53.4605 66.0132 53.5239 66.0106 53.5833 65.992C53.6428 65.9734 53.6963 65.9396 53.7385 65.8939C53.9306 65.6224 54.2215 65.6521 54.4809 65.6789C54.8048 65.6863 55.1256 65.6143 55.415 65.4693C55.1203 65.1317 54.7896 65.4269 54.5045 65.257C54.5909 65.0071 54.8637 64.9636 55.0356 64.8276C55.4108 64.5901 55.7358 64.2821 55.9924 63.9208C56.131 63.6766 56.2107 63.4423 56.5816 63.547C56.7328 63.5897 56.8302 63.4191 56.8484 63.2578C56.8701 63.0653 56.8855 62.8721 56.9038 62.6781C57.1367 62.7166 57.1289 62.8656 57.1193 63.0158C57.0846 63.5587 57.3738 64.0635 57.288 64.6202C57.2416 64.9209 57.5172 65.0712 57.7615 65.0924C58.0292 65.1391 58.2846 65.2395 58.5121 65.3876C58.7396 65.5356 58.9344 65.7281 59.0847 65.9533C59.4023 66.3686 59.8619 66.6537 60.3765 66.7549C60.5449 66.7875 60.6969 66.8766 60.8072 67.0072C60.9879 67.1902 61.2248 67.308 61.4803 67.3419C61.7359 67.3758 61.9956 67.324 62.2182 67.1946C63.1389 66.7738 64.1837 66.7071 65.151 67.0072C64.4082 67.4244 63.6344 67.7843 62.8362 68.0837ZM65.37 65.9104C64.6492 66.2391 63.8732 66.4316 63.0816 66.4783C62.6842 66.4834 62.2957 66.5963 61.958 66.8048C61.6081 67.0196 61.4475 66.8907 61.5098 66.4719C61.5418 66.2565 61.4402 66.2186 61.3019 66.1629C60.5919 65.877 59.9475 65.4569 59.2279 65.1853C58.489 64.9065 58.3171 64.135 57.9112 63.568C57.8984 63.5501 57.8897 63.5112 57.8999 63.4976C58.3158 62.943 57.7606 62.7141 57.522 62.3798C57.4791 62.3197 57.427 62.2658 57.3881 62.2035C56.9267 61.4648 56.74 61.4675 56.2262 62.1725C55.6296 62.991 55.0052 63.7894 54.4041 64.6048C54.2157 64.8966 53.9347 65.1174 53.6056 65.232C53.2765 65.3466 52.9184 65.3485 52.5881 65.2374C51.6657 65.0397 50.8035 64.6273 50.0723 64.0341C50.0186 63.9642 49.9452 63.9119 49.8613 63.8838C49.7775 63.8558 49.6872 63.8533 49.6019 63.8766C50.2182 64.8424 51.2767 65.0174 52.1683 65.4701C52.1239 65.5132 52.1129 65.532 52.097 65.5381C51.7263 65.6716 51.3251 65.6977 50.9401 65.6133C50.5551 65.529 50.2021 65.3377 49.9221 65.0617C49.5357 64.8112 49.0913 64.663 48.6311 64.6313C47.7502 64.4245 46.8534 64.2916 45.9501 64.2339C45.4281 63.8114 44.7193 64.0221 44.1538 63.6976C43.9307 63.5445 43.7529 63.3346 43.639 63.09C43.5251 62.8453 43.4792 62.5747 43.5062 62.3064C43.5117 62.2826 43.522 62.2601 43.5364 62.2403C43.5508 62.2205 43.5691 62.2038 43.5902 62.1912C43.6113 62.1785 43.6347 62.1703 43.6591 62.1669C43.6835 62.1635 43.7083 62.1651 43.732 62.1715C43.9235 62.2216 44.1114 62.2843 44.2946 62.3591C45.3999 62.7163 46.5303 62.9913 47.6766 63.1818C47.7382 63.1981 47.8154 63.1558 47.9134 63.1348C47.6973 62.8053 47.3499 62.814 47.0513 62.7611C45.9298 62.5763 44.8322 62.269 43.7784 61.8449C43.3616 61.6716 43.0579 61.8802 43.0983 62.3258C43.1309 62.6841 43.2123 63.038 43.2692 63.377C43.2209 63.4115 43.2017 63.4373 43.1822 63.4375C42.9814 63.4591 42.7783 63.4369 42.587 63.3724C42.3957 63.3079 42.2208 63.2027 42.0746 63.0641C41.9284 62.9255 41.8143 62.7569 41.7403 62.57C41.6663 62.3831 41.6342 62.1824 41.6462 61.9819C41.6081 61.5807 41.3621 61.2042 41.4502 60.7351C42.1077 60.8593 42.7781 60.9014 43.4461 60.8604C43.5957 60.8477 43.7461 60.8746 43.8819 60.9384C44.0177 61.0023 44.1342 61.1007 44.2193 61.2238C44.4992 61.5619 44.9022 61.5773 45.2662 61.7004C45.3234 61.7252 45.3874 61.7296 45.4475 61.713C45.5076 61.6963 45.5601 61.6596 45.5961 61.6089C45.6402 61.5486 45.6597 61.4738 45.6506 61.3997C45.6415 61.3256 45.6045 61.2578 45.5471 61.2097C45.264 60.8942 44.8878 60.6757 44.4724 60.5857C43.9874 60.4721 43.5323 60.2877 43.0611 60.1492C42.8309 60.0454 42.5802 59.9944 42.3276 60.0002C42.0749 60.0059 41.8268 60.0681 41.6016 60.1823C41.1146 60.4771 41.0061 60.5543 41.1056 61.0544C41.2107 61.5828 41.349 62.1047 41.4762 62.6287C41.5386 62.7635 41.5535 62.9153 41.5183 63.0595C41.3713 63.1973 41.2434 63.0988 41.1264 63.0142C40.427 62.5092 39.7203 62.016 39.797 60.9917C39.8093 60.8265 39.5684 60.6981 39.5565 60.4772C39.5378 60.1301 39.3089 59.728 39.9179 59.6404C40.1015 59.6141 40.003 59.4609 39.9587 59.3524C39.8598 59.1791 39.7015 59.047 39.5127 58.9802C38.5393 58.4453 37.499 58.0409 36.4188 57.7778C36.3184 57.7539 36.2251 57.7544 36.1454 57.9253L37.381 58.3828C36.8666 58.5071 36.5405 58.1881 36.1227 58.2599C36.2949 58.6004 36.6248 58.6288 36.9059 58.7153C37.5183 58.9038 38.1377 59.0699 38.7514 59.2545C39.085 59.3548 39.4084 59.4523 39.199 59.9414C39.1325 60.0965 39.2291 60.3209 39.2581 60.5749C38.7114 60.4599 38.1831 60.2711 37.6878 60.0137C37.5609 59.9757 37.5349 59.8423 37.5208 59.7106C37.5039 59.5519 37.5862 59.3679 37.429 59.2404C37.4044 59.2348 37.3789 59.2344 37.3541 59.2393C37.3293 59.2442 37.3059 59.2543 37.2853 59.2689C37.2648 59.2836 37.2476 59.3024 37.2349 59.3241C37.2222 59.3459 37.2144 59.3701 37.2118 59.3951C37.1305 59.7253 36.9381 59.6826 36.7119 59.5512C36.4873 59.3985 36.2493 59.2664 36.0007 59.1564C35.6167 59.0193 35.9872 58.626 35.744 58.4856C35.4573 58.3202 35.3362 58.8526 35.0236 58.6882C34.7799 58.5601 34.5389 58.4458 34.5197 58.113C34.5084 57.9162 34.6086 57.5783 34.2931 57.5963C33.9365 57.6166 34.3309 57.9787 34.1087 58.1597C33.6783 58.1432 33.3057 57.7782 32.8093 57.823C32.5926 57.8426 32.5601 57.507 32.4885 57.2943C32.7915 57.1289 33.0711 57.4215 33.3614 57.2883C32.2317 56.7479 32.2403 56.7459 31.928 55.3818C31.9209 55.1368 31.8627 54.8959 31.7573 54.6744C31.748 54.6616 31.7101 54.6691 31.625 54.6625C31.5672 54.9589 31.5746 55.2642 31.6466 55.5575C31.703 55.8425 31.7637 56.1266 31.836 56.4768C31.5756 56.4647 31.2714 56.435 31.2969 56.2127C31.3537 55.7184 30.9965 55.6661 30.7115 55.4926C29.8888 54.9918 29.0767 54.4738 28.2588 53.9653C27.7931 53.6855 27.3024 53.4491 26.7929 53.2594C26.6399 53.1998 26.2771 53.2326 26.5143 52.8525C26.5813 52.7453 26.4 52.7359 26.3153 52.7349C26.045 52.7319 25.7741 52.7334 25.5041 52.7468C25.1256 52.7658 24.9222 52.6503 24.8822 52.2212C24.7329 51.6532 24.6311 51.0739 24.5777 50.4892C24.584 50.3935 24.4901 50.3183 24.2907 50.23C24.409 51.4782 24.646 52.7123 24.9983 53.916C24.8216 54.1253 24.6616 53.9826 24.5153 53.9251C23.8263 53.6545 23.1333 53.3916 22.4574 53.0912C21.4951 52.6416 20.5077 52.2471 19.5001 51.9094C19.1823 51.782 18.8729 51.6345 18.5739 51.4678C18.6278 51.6185 18.7183 51.7537 18.8373 51.8613C18.9563 51.969 19.1001 52.0457 19.2561 52.0848C20.0978 52.2467 20.3379 52.8061 20.33 53.6209C19.7085 53.4905 19.135 53.1927 18.6722 52.76C18.3296 52.2503 18.1138 51.6669 18.0428 51.0579C17.9782 50.8084 18.1357 50.3161 17.7402 50.3923C17.414 50.4553 17.7334 50.856 17.7775 51.0901C17.8813 51.5252 18.0094 51.9541 18.1614 52.3749C17.9029 52.4375 17.6335 52.4416 17.3732 52.3869C17.1129 52.3323 16.8682 52.2203 16.6572 52.0592C16.4712 51.8973 16.2413 51.7936 15.9962 51.7609C15.8719 51.7547 15.7506 51.7207 15.6413 51.6615C15.532 51.6024 15.4374 51.5195 15.3646 51.4191C15.3247 51.3562 15.2719 51.3023 15.2097 51.2611C15.1474 51.2199 15.0771 51.1922 15.0033 51.18C14.7419 51.1556 14.4983 51.0378 14.3177 50.8483C14.1371 50.6589 14.0317 50.4107 14.0212 50.1499C13.98 49.88 13.8814 49.5926 13.4841 49.8799C13.3304 49.991 13.1466 49.8888 13.1024 49.6725C13.083 49.5774 13.0994 49.4735 13.0717 49.3819C13.0355 49.262 12.9632 49.1554 12.8093 49.183C12.6736 49.2073 12.6949 49.3179 12.6983 49.4135C12.7017 49.5076 12.7203 49.6076 12.5438 49.6477C12.1128 49.084 12.1171 48.2946 11.5907 47.595C11.6327 48.3617 12.0501 48.8711 12.1079 49.4777C12.0234 49.5688 11.9874 49.4876 11.9652 49.4274C11.43 48.296 11.0018 47.1176 10.6859 45.9074C10.4594 45.2092 10.3334 44.4827 10.3114 43.7494C10.3535 42.7148 10.7481 41.7251 11.4305 40.9429C12.1421 40.1903 12.8299 39.4163 13.601 38.7215C13.6737 38.656 13.8019 38.5841 13.8014 38.5158C13.7977 37.9255 14.2519 37.8286 14.6637 37.6244C15.0302 37.4201 15.3665 37.1664 15.6629 36.8704C15.7702 36.7703 15.8972 36.6933 16.0358 36.6444C16.1745 36.5954 16.3218 36.5756 16.4686 36.586C17.3096 36.5799 18.1446 36.7262 18.9329 37.0176C19.1173 37.089 19.3055 37.1502 19.4967 37.201C19.624 37.2515 19.7625 37.2676 19.898 37.2478C20.0336 37.2279 20.1616 37.1728 20.2689 37.088C20.3762 37.0032 20.459 36.8918 20.5091 36.7649C20.5592 36.638 20.5747 36.5002 20.554 36.3655C20.5554 36.3283 20.5485 36.2912 20.5339 36.2568C20.5193 36.2225 20.4974 36.1917 20.4696 36.1667C20.4418 36.1417 20.4089 36.123 20.3731 36.1119C20.3373 36.1009 20.2995 36.0977 20.2624 36.1027C19.6935 36.0723 19.1504 35.8569 18.7167 35.4895C18.0277 35.102 17.3861 34.6365 16.8048 34.1022C16.3271 33.5603 16.3594 33.5087 16.8797 32.993C17.1818 32.6453 17.4395 32.2619 17.6471 31.8515C17.8684 31.3129 18.1753 30.8132 18.5561 30.3715C18.784 30.1674 18.825 29.753 18.9417 29.4305C19.0462 29.0908 19.238 28.784 19.498 28.5403C19.7581 28.2967 20.0775 28.1246 20.4248 28.0411C21.5668 27.7151 22.7508 27.5581 23.9388 27.5751C24.3029 27.5871 24.6833 27.5589 24.921 27.9486C25.0101 28.0948 25.2192 28.1075 25.3842 28.1603C27.5706 28.8594 29.7568 29.559 31.9429 30.259C32.0761 30.3015 32.2465 30.5114 32.3402 30.191C32.3733 30.0778 32.4908 30.1303 32.5882 30.1644C34.4292 30.808 36.1667 31.6842 37.9524 32.4628C37.8518 32.6395 37.6269 32.5397 37.5848 32.7308C37.72 32.9885 37.9786 32.8884 38.1806 32.9053C39.0981 32.9492 39.9907 33.2167 40.7797 33.6842C40.8416 33.7233 40.9127 33.7881 40.9737 33.7823C41.3326 33.7839 41.6853 33.8753 41.9993 34.0482C42.3132 34.221 42.5784 34.4697 42.7703 34.7713C43.42 35.4458 44.2152 35.9647 45.096 36.289C46.3648 36.8297 47.6853 37.219 48.9858 37.6671C49.2455 37.7485 49.4785 37.8976 49.6607 38.0987C50.0649 38.5567 50.435 39.0452 50.8503 39.5346C50.5378 39.3469 50.2253 39.1594 49.9128 38.9718C50.5435 39.879 51.3999 40.608 52.3985 41.0877C53.2513 41.4195 54.0413 41.8926 54.7351 42.4868C55.2938 42.9378 55.9201 43.2987 56.5912 43.5566C56.7692 43.6076 56.9334 43.6977 57.0718 43.8201C57.2103 43.9425 57.3193 44.0942 57.3911 44.264C57.461 44.4658 57.6188 44.65 57.8348 44.544C58.489 44.2227 58.8032 44.7754 59.2261 45.0419C59.3236 45.1034 59.3672 45.2443 59.4581 45.3227C59.5678 45.4175 59.7048 45.5169 59.8388 45.3532C59.974 45.1883 59.8653 45.0869 59.7257 45.0053C59.3101 44.6966 59.0334 44.2375 58.9554 43.7274C59.7701 43.7086 60.05 43.8805 60.2949 44.5111C60.5813 45.2991 60.9884 46.0384 61.5019 46.7027C61.6378 46.8711 61.775 47.0622 62.028 47.078C62.0767 47.0865 62.1269 47.08 62.1718 47.0594C62.2167 47.0387 62.2542 47.0048 62.2791 46.9623C62.2917 46.9409 62.2994 46.917 62.3015 46.8923C62.3036 46.8676 62.3002 46.8427 62.2915 46.8195C62.2827 46.7963 62.2689 46.7753 62.251 46.758C62.2331 46.7408 62.2115 46.7277 62.1879 46.7198C62.0405 46.6994 61.9004 46.6435 61.7797 46.5569C61.659 46.4704 61.5615 46.3558 61.4955 46.2232C61.0529 45.578 60.6985 44.8772 60.4417 44.1391C60.5833 44.137 60.7236 44.1669 60.8519 44.2265C60.9802 44.2862 61.0932 44.374 61.1824 44.4835C61.2834 44.6247 61.4186 44.7384 61.5755 44.814C61.7323 44.8896 61.9058 44.9248 62.0799 44.9162C62.402 44.9308 62.715 45.0273 62.989 45.1964C63.6329 45.562 64.2906 45.9041 64.928 46.2803C65.0486 46.3515 65.5856 46.3476 65.0965 46.716C65.0015 46.7876 65.1851 46.9181 65.2869 46.9588C65.6254 47.1078 65.9738 47.2337 66.3295 47.3356C67.0405 47.6202 67.6777 48.0607 68.1937 48.6244C68.2687 48.6913 68.3198 48.7806 68.3396 48.8789C68.3593 48.9772 68.3465 49.0792 68.303 49.1696C68.26 49.2765 68.1545 49.3866 68.3288 49.4754C68.3815 49.5099 68.4456 49.5225 68.5076 49.5106C68.5695 49.4987 68.6243 49.4632 68.6602 49.4117C68.87 49.0646 69.0209 49.3152 69.1669 49.4539C69.8405 50.1057 70.413 50.8533 70.8658 51.6724C71.0838 52.0574 71.3284 52.4275 71.5429 52.8144C71.662 53.0028 71.7297 53.2188 71.7392 53.4412C71.7505 53.5265 71.7285 53.6128 71.6778 53.6825C71.6271 53.7522 71.5514 53.7999 71.4664 53.8158C71.2526 53.8767 71.0355 53.8715 70.9728 53.6384C70.6783 52.9388 70.2166 52.3212 69.6278 51.8392C69.0224 51.1589 68.3862 50.5028 67.7981 49.8058C67.0414 48.8476 65.9654 48.1898 64.764 47.9509C64.6706 47.9336 64.5764 47.8749 64.4816 47.9659C64.4598 48.1999 64.6515 48.2355 64.8072 48.2738C66.78 48.7582 67.926 50.2602 69.097 51.7256C69.263 51.9991 69.4924 52.2291 69.766 52.3964C69.964 52.4977 70.139 52.6384 70.2801 52.8098C70.4212 52.9811 70.5254 53.1795 70.5861 53.3926C70.9004 54.2046 70.907 54.2021 71.8333 54.2203C71.5112 54.6456 71.2229 55.0953 70.971 55.5652C70.5601 56.4046 70.0243 57.1776 69.3815 57.858C68.7793 58.757 68.2879 59.7246 67.9178 60.7402C67.3428 61.6616 67.0239 62.7183 66.9936 63.8024C67.0071 64.1233 66.624 64.3461 66.5403 64.6871C66.4848 64.9133 66.2962 65.084 66.4609 65.3685C66.555 65.5309 66.4417 65.7618 66.1527 65.7181C65.879 65.7095 65.6082 65.7761 65.37 65.9104ZM29.2793 28.3293C29.2136 28.3235 29.1499 28.304 29.0924 28.2719C29.0349 28.2399 28.9849 28.1961 28.9456 28.1434C29.8124 28.0289 30.3882 28.6221 31.0787 28.7982C31.8267 28.9906 32.5122 29.3716 33.069 29.9043C32.5476 29.8143 32.0388 29.6631 31.5533 29.4537C31.2124 29.3083 30.8333 29.2764 30.4727 29.3628C30.354 29.3934 30.2286 29.3866 30.1138 29.3435C28.6643 28.8837 27.217 28.4166 25.7285 27.9383C25.8195 27.8892 25.9209 27.8619 26.0244 27.8587C26.1279 27.8556 26.2308 27.8765 26.3247 27.9199C27.2931 28.1067 28.2488 28.3537 29.186 28.6596C29.3262 28.711 29.4966 28.7928 29.5542 28.5922C29.6091 28.4009 29.4113 28.3725 29.2793 28.3293ZM44.8454 34.5331C45.4613 34.7868 46.0548 35.1003 46.6824 35.3182C47.5239 35.7186 48.2275 36.3574 48.705 37.1543C48.3173 37.0946 47.939 36.9851 47.5796 36.8286C47.2284 36.7008 46.9063 36.3887 46.475 36.5967C46.4243 36.6212 46.3275 36.5793 46.2641 36.5456C45.0166 35.8823 43.6311 35.4631 42.6952 34.2764C41.9824 33.5508 41.0592 33.065 40.0548 32.8872C39.0207 32.5633 38.0192 32.1443 37.0631 31.6358C37.8537 31.7857 38.6259 32.0191 39.3665 32.3322C39.8783 32.5094 40.3611 32.7857 40.8825 32.9161C42.2417 33.3573 43.5663 33.8978 44.8454 34.5331ZM51.7476 39.5196C52.0467 39.7172 52.3012 39.9744 52.4951 40.2749C52.3901 40.3088 52.2771 40.3096 52.1717 40.2771C52.0662 40.2446 51.9734 40.1805 51.9061 40.0935C51.6973 39.8914 51.4883 39.6896 51.279 39.4882C51.3488 39.439 51.4335 39.4152 51.5189 39.4209C51.6043 39.4267 51.6851 39.4615 51.7476 39.5196ZM53.5823 40.8311C54.2668 40.7077 54.3861 41.2534 54.6801 41.5549C54.2524 41.4224 53.8715 41.1713 53.5823 40.8311ZM55.259 41.6815C55.4446 41.6737 55.6299 41.7032 55.8037 41.7683C55.9776 41.8333 56.1365 41.9326 56.2709 42.0601C56.4054 42.1876 56.5126 42.3408 56.5861 42.5104C56.6596 42.6801 56.698 42.8627 56.699 43.0475C56.1879 42.6232 55.4894 42.3976 55.259 41.6815ZM56.9061 42.4536C57.8902 42.8442 58.718 43.2258 58.8672 44.3083C57.9482 44.2718 57.3961 43.7725 56.9061 42.4536ZM67.0104 46.8667C67.4493 46.4059 67.7685 46.5157 68.1184 47.2925C67.7112 47.2796 67.3205 47.1294 67.0104 46.8667ZM71.8944 55.057C71.925 55.0455 72.0132 55.0897 72.0141 55.1106C72.0284 55.4681 71.6863 55.5377 71.4592 55.841C71.4233 55.3702 71.5976 55.1687 71.8944 55.057ZM68.0465 63.3785C67.904 64.6063 67.2869 65.7308 66.3258 66.5143C66.7261 65.9532 66.9844 65.3042 67.0785 64.6226C67.1598 64.0628 67.8016 63.862 68.0465 63.3785ZM65.6936 67.7778C65.8558 67.4168 66.069 67.3019 66.2844 67.3173C66.4276 67.3461 66.5764 67.3235 66.7044 67.2534C66.8324 67.1833 66.9312 67.0704 66.9834 66.9347C67.1307 66.6405 67.5038 66.9164 67.7813 66.7023C68.2193 66.4526 68.7113 66.3118 69.2157 66.2919C68.1734 67.052 66.9676 67.5607 65.6936 67.7778ZM76.314 62.6033C75.8911 62.981 75.4071 63.285 74.8824 63.5024C74.7523 63.571 74.6121 63.6189 74.4671 63.6445C73.6439 63.7294 72.8667 64.0633 72.2403 64.6011C72.0355 64.7343 71.8823 64.8476 71.7889 64.4699C71.7427 64.2828 71.476 64.3059 71.356 64.4508C71.2342 64.5978 71.3771 64.7173 71.5056 64.8C71.5614 64.8359 71.6381 64.8446 71.6451 64.9443C71.2026 65.2902 70.6707 65.5042 70.1109 65.5616C70.0208 65.4507 70.1082 65.4349 70.1682 65.4159C70.4019 65.3422 70.6307 65.1938 70.4905 64.951C70.3066 64.6324 70.0914 64.936 69.9565 65.0499C69.208 65.6001 68.3467 65.9794 67.4339 66.1606C67.3881 66.0955 67.3677 66.0159 67.3767 65.9369C67.3857 65.8579 67.4234 65.7849 67.4827 65.7316C67.9846 64.9992 68.3915 64.2068 68.6938 63.3731C68.7292 63.2813 68.759 63.187 68.7996 63.0976C68.8077 63.0622 68.8244 63.0293 68.8484 63.0019C68.8723 62.9745 68.9027 62.9535 68.9369 62.9407C68.971 62.9278 69.0078 62.9236 69.044 62.9284C69.0802 62.9332 69.1146 62.9469 69.1442 62.9681C69.3115 63.047 69.3751 63.1468 69.3023 63.3114C69.0765 63.7211 68.935 64.1715 68.8861 64.6361C69.223 64.1205 69.498 63.5673 69.7055 62.9881C69.7978 62.7795 69.8384 62.3851 70.1479 62.5255C70.5513 62.7086 70.0935 62.9136 70.0343 63.0974C69.906 63.416 69.7534 63.7243 69.5778 64.0197C69.5214 64.1315 69.4797 64.2476 69.675 64.3933C69.9071 63.9735 70.1361 63.5612 70.3633 63.1478C70.4578 62.9243 70.6327 62.7438 70.8539 62.6416C71.075 62.5395 71.3265 62.523 71.5592 62.5954C71.3328 63.2134 70.8673 63.6657 70.5283 64.3766C70.911 64.232 71.2228 63.9462 71.3987 63.5786C71.6378 63.1488 71.9707 62.7777 72.373 62.4927C72.5043 62.3793 72.6635 62.3025 72.8343 62.2701C73.0052 62.2377 73.1816 62.2509 73.3456 62.3082C73.7063 62.4481 74.0987 62.4864 74.4798 62.4188C74.8608 62.3512 75.2158 62.1805 75.5056 61.9252C76.1275 61.5198 76.8293 61.2829 77.4359 60.8529C77.8805 60.5379 78.2713 60.1632 78.7139 59.8505C78.7566 59.8214 78.7894 59.7801 78.8079 59.732C78.8263 59.6839 78.8297 59.6313 78.8173 59.5813C78.7822 59.5479 78.7404 59.5224 78.6946 59.5062C78.6489 59.4901 78.6002 59.4837 78.5518 59.4876C78.5034 59.4915 78.4564 59.5055 78.4138 59.5287C78.3712 59.5519 78.3341 59.5838 78.3048 59.6223C77.7434 60.1245 77.1346 60.5716 76.4868 60.9574C76.2389 61.1198 75.9522 61.2139 75.6559 61.2302C76.3764 60.4684 77.2414 59.8559 78.201 59.428C77.5689 59.222 77.1939 59.6587 76.67 59.7905C76.7884 59.2479 77.2715 58.9644 77.371 58.4918C77.262 58.421 77.1297 58.3951 77.0019 58.4197C76.8741 58.4442 76.7609 58.5173 76.6864 58.6233C76.0833 59.3035 75.4848 59.9878 74.883 60.6692C74.864 60.6846 74.8491 60.7045 74.8397 60.727C74.8302 60.7496 74.8265 60.7741 74.8288 60.7984C74.8312 60.8227 74.8395 60.8461 74.8531 60.8664C74.8666 60.8867 74.8851 60.9034 74.9067 60.915C75.0869 61.0142 75.1759 60.9211 75.1881 60.7343L75.1892 60.7338C75.2188 60.7877 75.2367 60.8473 75.2417 60.9085C75.2467 60.9698 75.2387 61.0315 75.2181 61.0895C75.1976 61.1474 75.1649 61.2005 75.1224 61.2451C75.0799 61.2897 75.0284 61.3249 74.9712 61.3484C74.6885 61.4598 74.3855 61.6605 74.0541 61.527C74.0195 61.5115 73.9893 61.4876 73.9665 61.4574C73.9437 61.4272 73.929 61.3917 73.9237 61.3543C73.9184 61.3169 73.9228 61.2788 73.9364 61.2435C73.9499 61.2083 73.9723 61.177 74.0013 61.1526C74.2402 60.8406 74.4368 60.4987 74.5861 60.1357C74.6332 60.0347 74.7044 59.9468 74.7937 59.8797C74.883 59.8126 74.9875 59.7684 75.098 59.7509C75.1956 59.7342 75.2917 59.7101 75.3856 59.6789C75.432 59.6627 75.4744 59.6368 75.5099 59.6031C75.5455 59.5693 75.5734 59.5284 75.5919 59.4831C75.6103 59.4378 75.6189 59.3891 75.6169 59.3402C75.615 59.2913 75.6026 59.2435 75.5806 59.1997C75.4868 58.9583 75.2753 59.0923 75.159 59.2034C74.655 59.5573 74.083 59.8039 73.4787 59.9278C73.4118 59.9408 73.3431 59.9419 73.2759 59.931C73.0771 59.7639 73.4528 59.5635 73.2232 59.4079C73.0636 59.4111 73.0428 59.5501 72.992 59.6542C72.7986 60.0499 72.6637 60.4662 72.0628 60.4404C71.8035 60.4293 71.6384 60.7498 71.5006 60.9836C71.3659 61.2467 71.1739 61.4767 70.9387 61.6568C70.7034 61.8369 70.4308 61.9626 70.1406 62.0249C69.7588 62.0989 69.5196 62.4246 69.0434 62.5811C69.3912 61.1908 70.3689 60.2433 71.0634 59.1448C70.8034 59.0067 70.7527 59.1434 70.6555 59.267C69.9065 60.2141 69.2533 61.2322 68.7052 62.3066C68.5816 62.5499 68.544 62.9118 68.0577 62.7545C67.8553 62.689 67.7664 63.1177 67.5287 63.2184C67.4645 62.5432 67.6599 61.8688 68.0757 61.3311C68.1568 61.638 67.9733 61.8668 67.9546 62.1164C67.9455 62.2374 67.8852 62.3688 68.0418 62.4295C68.0763 62.4444 68.1137 62.4515 68.1513 62.4502C68.1889 62.4488 68.2257 62.4391 68.2591 62.4217C68.2924 62.4043 68.3213 62.3797 68.3438 62.3497C68.3663 62.3197 68.3817 62.285 68.3889 62.2483C68.4669 61.5698 68.626 60.9029 68.8627 60.2618C68.9499 59.3744 69.3355 58.5422 69.957 57.8995C70.4199 57.4701 70.6623 56.8275 71.2478 56.5092C71.4236 56.5867 71.2935 56.6684 71.2657 56.7324C71.1813 56.9264 71.1256 57.1563 71.3508 57.2393C71.5417 57.3096 71.6075 57.0763 71.687 56.9242C72.1069 56.2581 72.4401 55.5417 72.6783 54.7921C72.7954 54.2908 72.9145 53.8549 72.4222 53.3939C72.0512 53.0329 71.8035 52.5653 71.7139 52.0569C71.6603 51.6148 71.5065 51.1907 71.2639 50.8164C71.3676 50.756 71.4881 50.7305 71.6076 50.7437C71.727 50.757 71.8389 50.8084 71.9266 50.8901C72.2766 51.1938 72.6801 50.9836 73.0497 51.0595C73.0679 51.0613 73.0863 51.0592 73.1037 51.0536C73.121 51.0479 73.137 51.0386 73.1506 51.0265C73.1642 51.0143 73.1751 50.9994 73.1826 50.9828C73.1901 50.9662 73.1941 50.9483 73.1942 50.9301C73.203 50.8335 73.1317 50.7675 73.0796 50.7759C72.2149 50.9153 71.8308 50.2469 71.3252 49.7696C71.0868 49.5561 70.8315 49.3621 70.5617 49.1895C70.1163 48.8775 69.7043 48.5209 69.332 48.1252C69.2701 48.0616 69.1342 47.9983 69.3161 47.8588C69.5767 47.6591 69.5542 47.5192 69.3114 47.518C69.0639 47.5108 68.8232 47.436 68.6155 47.302C68.4079 47.1679 68.2412 46.9797 68.1338 46.7578C68.0536 46.6009 67.9265 46.4724 67.7701 46.39C67.6136 46.3076 67.4354 46.2752 67.2598 46.2973C66.3946 46.4999 65.8667 45.971 65.2938 45.5125C65.2081 45.4332 65.129 45.3472 65.0573 45.2551C65.0839 45.2056 65.0893 45.1763 65.1049 45.1694C65.3622 45.0555 65.7912 45.0413 65.762 44.7028C65.7285 44.3155 65.2984 44.432 65.0257 44.4161C64.9279 44.4193 64.8306 44.4008 64.7408 44.3621C64.651 44.3234 64.571 44.2654 64.5064 44.1923C63.9484 43.4743 63.2061 42.9192 62.3576 42.5854C61.8946 42.369 61.4953 42.038 61.198 41.624C62.1043 41.8697 62.9337 42.3385 63.6098 42.9871C63.9877 43.3032 64.3274 43.6645 64.6846 44.005C65.0455 44.349 65.0516 44.3498 65.4973 44.0095C64.8415 43.7502 64.2624 43.33 63.8141 42.7881C62.6661 41.8114 61.2961 41.1278 59.8226 40.7963C58.8669 40.6361 57.9309 40.3759 57.0301 40.0201C57.1067 40.2097 57.2298 40.3772 57.3883 40.5073C57.5468 40.6373 57.7355 40.7258 57.9372 40.7646C58.2902 40.8695 58.6528 40.943 59.0124 41.0247C59.9382 41.2084 60.7868 41.6652 61.4476 42.3357C61.6844 42.585 61.9681 42.7856 62.2826 42.926C62.4959 43.0205 62.6943 43.1484 62.9741 43.3025C62.0407 43.4384 62.0407 43.4384 59.2281 41.9751C59.0956 42.1752 59.305 42.2275 59.3905 42.3008C60.3093 43.0578 61.4149 43.5566 62.5927 43.7457C63.1426 43.8635 63.6235 44.1924 63.9309 44.661C63.3296 44.7629 62.7113 44.6553 62.1806 44.3563C60.649 43.4572 59.052 42.6769 57.464 41.8793C56.2753 41.2767 55.1435 40.5691 54.0821 39.7651C52.4687 38.5522 50.8077 37.4069 49.1355 36.2764C48.2573 35.6828 47.3846 35.0814 46.47 34.5433C46.3642 34.4811 46.2491 34.429 46.2053 34.2958C46.2358 34.2693 46.2707 34.2482 46.3084 34.2336C46.5424 34.1903 46.8723 34.6172 46.9861 34.2034C47.0605 33.9326 46.6499 33.9268 46.4265 33.8794C45.7665 33.6813 45.1757 33.3029 44.7213 32.7874C43.9666 32.0236 43.2866 31.1901 42.6905 30.2983C42.8538 30.1838 42.9781 30.2509 43.0972 30.2422C43.2698 30.2295 43.5396 30.4284 43.5817 30.1201C43.618 29.8539 43.3312 29.9792 43.1908 29.9243C42.9418 29.8269 43.0256 29.5131 42.7714 29.3696C41.7802 28.721 40.6911 28.234 39.5453 27.9271C39.3295 27.8755 39.1082 27.8497 38.8862 27.8503C38.3018 27.8645 37.7172 27.8277 37.1392 27.7403C37.0802 28.0324 37.3753 28.045 37.4386 28.2175C37.7849 28.1522 38.141 28.158 38.4849 28.2345C38.8289 28.3109 39.1535 28.4565 39.4389 28.6623C40.0244 29.0726 40.6496 29.4239 41.3052 29.711C41.6966 29.8953 42.0458 30.1572 42.3317 30.4806C42.6175 30.804 42.8338 31.1822 42.9672 31.5918C43.0829 31.9303 43.2006 32.2682 43.3468 32.6916C42.3799 32.5429 41.5492 32.2315 40.693 32.0305C39.3689 31.7122 38.091 31.2278 36.8899 30.5889C36.299 30.2799 35.6861 30.0145 35.056 29.795C34.2177 29.5034 33.3996 29.157 32.6072 28.7581C30.9452 27.9844 29.166 27.4892 27.3416 27.2924C26.1437 27.1231 24.961 26.8468 23.7177 26.7929C23.7982 26.4496 24.0808 26.402 24.3221 26.3047C25.7635 25.7819 27.2712 25.4618 28.8016 25.3537C29.2189 25.3086 29.6326 25.229 30.0474 25.1622C30.9048 25.0239 31.7758 25.1051 32.6298 25.0322C34.132 24.9041 35.6395 24.8864 37.1419 24.7543C38.043 24.675 38.9083 24.4504 39.7781 24.3264C39.9104 24.4841 39.7577 24.5615 39.7344 24.6666C39.7189 24.7073 39.7132 24.751 39.7178 24.7942C39.7223 24.8374 39.737 24.879 39.7606 24.9156C39.7842 24.9521 39.8161 24.9827 39.8538 25.0048C39.8914 25.0269 39.9337 25.0399 39.9773 25.0428C40.0497 25.0625 40.1269 25.0541 40.1933 25.0194C40.2598 24.9847 40.3105 24.9262 40.3353 24.8558C40.3976 24.7101 40.3062 24.4871 40.5445 24.4296C40.783 24.3678 41.0302 24.3457 41.2761 24.3642C41.614 24.393 41.9062 24.6733 42.2934 24.5313C42.2393 24.0676 41.7247 24.2099 41.5055 23.9117C43.2389 23.3199 44.9246 22.6084 46.8049 22.7027C47.1514 22.6778 47.4989 22.734 47.8196 22.8667C47.8678 22.9042 47.9259 22.9271 47.9868 22.9328C48.0478 22.9385 48.1091 22.9267 48.1636 22.8988C48.5126 22.7384 48.9004 22.6805 49.2815 22.7316C49.6625 22.7827 50.021 22.9408 50.3149 23.1874C51.5107 23.8816 52.6813 24.6185 53.8669 25.3302C54.1416 25.4962 54.4268 25.6442 54.7207 25.7735C54.9282 25.8639 55.1384 26.0304 55.3614 25.7212C55.5184 25.5036 55.7733 25.6403 55.9627 25.7578C56.9934 26.3417 57.9926 26.9793 58.9559 27.6677C59.6101 28.0643 60.1941 28.5653 60.6845 29.1506C60.4278 29.2026 60.1629 29.2762 60.0692 29.0517C59.9167 28.6862 59.6187 28.6484 59.3119 28.5576C58.6557 28.3383 58.0176 28.069 57.4031 27.752C57.198 27.655 56.9609 27.5842 56.946 27.2465C56.9356 27.0114 56.1053 26.6336 55.8377 26.6742C55.6695 26.6997 55.6603 26.8157 55.6814 26.9452C55.7264 27.2212 55.9344 27.3423 56.1585 27.4657C56.9786 27.9208 57.8266 28.3243 58.6974 28.6739C59.0193 28.802 59.4494 28.8388 59.5037 29.324C59.5168 29.4406 59.6293 29.4521 59.7364 29.4353C60.1898 29.35 60.6584 29.397 61.0856 29.5704C61.5128 29.7439 61.8805 30.0365 62.1444 30.413C61.9639 30.6533 61.6434 30.3567 61.4876 30.6142C61.4313 30.8795 61.7832 30.9617 61.8165 31.2516C61.3738 31.2367 61.1253 30.9325 60.847 30.6347C60.6509 31.0058 60.8639 31.1697 61.0617 31.2955C61.3492 31.4833 61.6541 31.6435 61.9722 31.7738C62.1487 31.8314 62.2968 31.9533 62.3868 32.115C62.4767 32.2767 62.5019 32.4662 62.4571 32.6455C62.2452 33.5106 62.0857 34.3876 61.9794 35.2717C61.6944 35.161 61.4603 34.9499 61.3217 34.6785C60.6472 33.821 59.7296 33.1844 58.6873 32.851C58.1525 32.6603 57.6315 32.4334 57.1277 32.1721C56.3236 31.7855 55.6356 31.1958 55.1326 30.4618C54.9608 30.1585 54.7298 29.8925 54.4531 29.6794C54.4793 30.1912 54.877 30.4209 54.9642 30.7864C54.8718 30.8772 54.787 30.7846 54.699 30.775C54.6213 30.7664 54.5431 30.7751 54.5064 30.8496C54.4932 30.8703 54.4844 30.8934 54.4805 30.9176C54.4766 30.9418 54.4777 30.9665 54.4837 30.9902C54.4898 31.0139 54.5006 31.0362 54.5155 31.0556C54.5305 31.0751 54.5493 31.0913 54.5708 31.1033C54.7587 31.2216 54.9446 31.3439 55.1383 31.4522C55.9132 31.8851 56.6865 32.3214 57.4688 32.7406C58.0019 33.0547 58.4802 33.4527 58.8852 33.9191C59.553 34.6245 60.4117 35.0853 61.1226 35.7309C61.1777 35.7794 61.2447 35.8124 61.3168 35.8267C61.9319 35.9419 61.9345 35.9397 62.0237 36.4771C62.0235 36.5509 62.0393 36.6238 62.0701 36.6909C62.1008 36.758 62.1459 36.8177 62.2021 36.8659C62.5626 36.5817 62.5541 36.2687 62.4421 35.8275C62.3199 35.4635 62.2953 35.074 62.371 34.6977C62.4466 34.3214 62.6198 33.9712 62.8734 33.6819C63.0583 33.4799 63.1814 33.2946 63.4184 33.5955C64.1791 33.4345 64.472 34.0563 64.941 34.4467C64.7182 34.6306 64.5331 34.4791 64.3538 34.4831C64.2455 34.4855 64.1505 34.5068 64.1416 34.6242C64.1384 34.6741 64.1544 34.7232 64.1862 34.7618C64.218 34.8004 64.2634 34.8256 64.3131 34.8322C64.6073 34.8673 64.8983 34.9244 65.1837 35.003C65.5001 35.0682 65.7903 35.2243 66.0184 35.4519C65.9416 35.5984 65.8195 35.5423 65.7098 35.5212C65.5738 35.4949 65.4082 35.3503 65.3111 35.5218C65.1863 35.7424 65.431 35.801 65.553 35.8968C65.6232 35.9471 65.7028 35.9831 65.7871 36.0027C65.8714 36.0223 65.9588 36.0251 66.0442 36.0109C66.2538 36.0072 66.4618 36.0462 66.6557 36.1254C66.8495 36.2046 67.025 36.3225 67.1714 36.4717C66.7528 36.5812 66.4206 36.3033 66.0999 36.4769C66.3072 37.0349 66.3072 37.0349 66.7597 36.929C67.428 36.7724 67.9831 37.0778 68.4764 37.8761C68.3346 38.0852 68.1648 37.9216 68.0127 37.9009C67.836 37.8769 67.657 37.8302 67.5631 38.0323C67.5326 38.1012 67.5281 38.1787 67.5505 38.2506C67.573 38.3224 67.6207 38.3838 67.6851 38.4234C68.1111 38.7481 68.1576 39.2716 68.3706 39.7065C68.482 39.934 68.5577 40.1852 68.1731 40.2691C68.1418 40.2727 68.1121 40.2846 68.0871 40.3035C68.062 40.3224 68.0425 40.3476 68.0306 40.3765C68.0186 40.4055 68.0148 40.4371 68.0193 40.468C68.0239 40.499 68.0367 40.5281 68.0564 40.5525C68.068 40.5813 68.0861 40.6071 68.1093 40.6279C68.1325 40.6487 68.1602 40.6638 68.1902 40.6722C68.2203 40.6806 68.2519 40.682 68.2826 40.6763C68.3133 40.6706 68.3422 40.6579 68.3672 40.6393C68.6634 40.4352 68.7677 40.6567 68.8544 40.8619C69.6135 42.2942 70.659 43.557 71.9267 44.5729C72.2192 44.8379 72.5368 45.074 72.8752 45.2778C73.304 45.472 73.6682 45.7837 73.9252 46.1763C73.9914 46.2814 74.0817 46.3693 74.1888 46.4328C74.26 46.5031 74.3523 46.5484 74.4517 46.5619C74.5511 46.5754 74.6523 46.5562 74.7398 46.5074C74.987 46.3409 74.7223 46.1575 74.7323 45.8997C75.3355 45.9492 75.9208 46.1277 76.4483 46.4228C76.9757 46.718 77.433 47.1229 77.7887 47.6098C77.3108 47.6659 76.9525 47.3916 76.5456 47.3224C76.2827 47.2491 76.0023 47.2693 75.7528 47.3795C75.6831 47.4078 75.627 47.4616 75.596 47.5299C75.5651 47.5982 75.5617 47.6756 75.5866 47.7463C75.6035 47.8189 75.6423 47.8847 75.6977 47.9348C75.753 47.985 75.8225 48.0172 75.8967 48.0272C76.0649 48.0506 76.1557 48.0157 76.1356 47.7902C76.1165 47.5754 76.3345 47.6036 76.4641 47.6418C76.8427 47.7532 77.2127 47.8933 77.5885 48.0146C77.827 48.0917 77.9975 48.4164 78.3206 48.2129C78.3495 48.1946 78.4621 48.2612 78.502 48.3138C79.0957 48.8735 79.5351 49.5751 79.7784 50.3517C79.8133 50.5717 79.897 50.7812 80.0236 50.9649C80.283 51.3377 80.4681 51.7566 80.5689 52.1988C80.604 53.1219 80.5288 54.0425 80.4869 54.965C79.9605 55.0857 79.5021 55.4056 79.209 55.8568C78.7291 56.6002 78.1192 57.252 77.4082 57.7816C77.3041 57.8537 77.1666 57.9661 77.3145 58.1566C78.2049 57.8025 78.9613 57.1797 79.4773 56.3759C79.6853 55.954 80.0248 55.6102 80.4451 55.3956C80.4608 55.3892 80.4649 55.3794 80.4782 55.3723C80.4734 55.5612 80.4633 55.7498 80.4662 55.9389C80.4676 56.0299 80.4983 56.118 80.5537 56.1904C80.4274 56.9781 80.2043 57.7474 79.8892 58.4809C79.0331 60.1108 77.8095 61.5217 76.314 62.6033ZM71.6297 61.2613C71.8609 60.9576 72.1454 60.6982 72.4696 60.4955C72.4548 60.8189 72.3553 61.1328 72.1811 61.4063C72.1077 61.5804 71.9525 61.574 71.8082 61.5797C71.7351 61.5872 71.6619 61.5666 71.6034 61.5223C71.5721 61.4842 71.5574 61.4353 71.5623 61.3864C71.5672 61.3374 71.5915 61.2924 71.6297 61.2613ZM72.5629 61.2241C72.7558 60.3592 73.4146 60.155 74.2507 59.9843C74.0047 60.484 73.8247 60.9007 73.5984 61.2907C73.5192 61.4 73.4182 61.492 73.3018 61.561C73.1853 61.6299 73.0559 61.6744 72.9215 61.6915C72.6014 61.7644 72.4864 61.567 72.5629 61.2241ZM75.2092 60.7251C75.4637 60.659 75.5425 60.4158 75.6783 60.2369C75.8063 60.0682 75.8846 59.8593 76.1248 59.8027C76.0352 60.4212 75.7059 60.7467 75.2092 60.7251ZM61.2114 35.2696C60.3612 34.7639 59.5816 34.1494 58.8923 33.4419C59.6465 33.442 60.4219 34.0443 61.2114 35.2696Z" fill="#211F20"/>
<path id="Vector_44" d="M35.9102 26.2899C36.494 26.0407 36.9621 26.2285 37.3966 26.1212C38.0591 25.9574 38.7348 26.3324 39.3997 26.0851C39.4651 26.0607 39.5903 26.0463 39.6126 26.0786C39.931 26.5409 40.4543 26.5049 40.9131 26.6271C41.0065 26.6519 41.1035 26.7015 41.0652 26.8323C41.03 26.9526 40.9306 26.9649 40.8325 26.9422C39.5126 26.6231 38.155 26.4844 36.7975 26.5301C36.4902 26.5003 36.1902 26.4191 35.9102 26.2899Z" fill="#211F20"/>
<path id="Vector_45" d="M79.3679 49.8461C79.0771 49.9791 78.9736 49.7921 78.8406 49.7056C78.179 49.3773 77.4534 49.1966 76.7143 49.1759C76.6655 49.1674 76.6154 49.1754 76.5717 49.1985C76.5281 49.2217 76.4935 49.2587 76.4734 49.3036C76.2295 49.7627 76.0288 49.5138 75.8343 49.2615C75.4904 48.8153 75.1489 48.3673 74.8099 47.9175C74.7504 47.8382 74.7127 47.7372 74.8286 47.6657C74.9316 47.6021 75.0145 47.6589 75.0828 47.7324C75.1103 47.7729 75.1347 47.8154 75.1559 47.8595C75.3645 48.2323 75.6752 48.5387 76.0519 48.743C76.4286 48.9474 76.8558 49.0413 77.284 49.0139C77.7532 49.0121 78.219 49.0931 78.6597 49.2532C78.8184 49.2848 78.9664 49.3557 79.0902 49.4593C79.214 49.563 79.3095 49.696 79.3679 49.8461Z" fill="#211F20"/>
<path id="Vector_46" d="M52.005 25.5341C51.969 25.5479 51.9386 25.5732 51.9186 25.606C51.8106 25.4438 51.6524 25.3208 51.468 25.2556C51.2052 25.1212 50.9506 24.9715 50.7056 24.8071C50.5343 24.691 50.2093 24.5626 50.368 24.3297C50.5692 24.0345 50.7516 24.4124 50.8901 24.503C51.4696 24.8821 52.1092 25.142 52.7088 25.4781C52.8299 25.546 52.9991 25.558 53.0193 25.7957C52.6319 25.8816 52.3445 25.5857 52.005 25.5341Z" fill="#211F20"/>
<path id="Vector_47" d="M79.4036 53.0996L74.9907 54.6159C76.3374 53.8061 77.8414 53.2894 79.4036 53.0996Z" fill="#211F20"/>
<path id="Vector_48" d="M73.4036 48.0221C73.8739 48.4836 74.3916 48.8947 74.9483 49.2487C75.1419 49.3574 75.2418 49.5348 75.0481 49.7231C75.0185 49.7625 74.9798 49.7941 74.9352 49.8153C74.8907 49.8365 74.8416 49.8467 74.7922 49.8449C74.7429 49.8431 74.6947 49.8295 74.6518 49.8051C74.6089 49.7807 74.5726 49.7463 74.546 49.7049C74.1574 49.3333 73.7928 48.9378 73.4541 48.5207C73.3915 48.4549 73.3526 48.3702 73.3434 48.28C73.3343 48.1898 73.3554 48.0991 73.4036 48.0221Z" fill="#211F20"/>
<path id="Vector_49" d="M73.943 58.6887C73.8892 58.853 73.7808 58.9943 73.6356 59.0893C73.4904 59.1844 73.317 59.2274 73.1439 59.2115C72.8276 59.1619 72.5039 59.1881 72.1997 59.2878C72.0993 59.3366 71.9899 59.3394 71.935 59.256C71.8562 59.1363 71.9293 59.0176 72.0275 58.9379C72.292 58.7234 72.6113 58.5865 72.9497 58.5425C73.288 58.4984 73.632 58.5491 73.943 58.6887Z" fill="#211F20"/>
<path id="Vector_50" d="M52.814 29.5231C52.471 29.4922 52.1284 29.4533 51.7847 29.4334C51.6862 29.4355 51.5885 29.4142 51.4999 29.3713C51.4112 29.3283 51.3342 29.265 51.2751 29.1865C51.2545 29.158 51.2404 29.1254 51.2336 29.0909C51.2268 29.0565 51.2276 29.021 51.2358 28.9869C51.2557 28.9597 51.2823 28.9382 51.3131 28.9243C51.3439 28.9104 51.3778 28.9046 51.4114 28.9076C52.0645 29.1259 52.7596 29.1902 53.4419 29.0955C53.5881 29.0812 53.766 29.1766 53.7578 29.3381C53.7476 29.5411 53.5427 29.4863 53.4062 29.4921C53.2096 29.5004 53.0123 29.4942 52.8153 29.4942L52.814 29.5231Z" fill="#211F20"/>
<path id="Vector_51" d="M42.8794 24.1447C43.8015 24.312 44.6481 24.7613 45.3011 25.4301C44.4307 25.1314 43.6134 24.6976 42.8794 24.1447Z" fill="#211F20"/>
<path id="Vector_52" d="M74.7181 52.6537C74.7517 51.9508 74.0971 51.6055 73.9365 50.9912C74.2686 51.1338 74.4865 51.3808 74.879 51.3898C75.2551 51.3984 75.3636 51.7832 75.1134 52.1277C75.0012 52.2821 75.0777 52.5306 74.7181 52.6537Z" fill="#211F20"/>
<path id="Vector_53" d="M80.0642 54.6596C80.0204 54.8937 79.8214 54.899 79.6632 54.9014C79.1468 54.9277 78.65 55.1069 78.2367 55.416C78.1563 55.4714 78.0724 55.5214 77.9854 55.5658C77.9644 55.578 77.941 55.5857 77.9168 55.5883C77.8926 55.5908 77.8681 55.5883 77.845 55.5807C77.8219 55.5732 77.8006 55.5609 77.7826 55.5446C77.7646 55.5283 77.7503 55.5084 77.7406 55.4862C77.6945 55.4039 77.7617 55.3402 77.8173 55.304C78.2928 54.9609 78.8416 54.7316 79.4208 54.634C79.6326 54.5748 79.8578 54.5838 80.0642 54.6596Z" fill="#211F20"/>
<path id="Vector_54" d="M78.9783 52.5349C79.2142 52.3768 79.3242 52.2319 79.5692 52.321C79.4991 52.4061 79.4073 52.4709 79.3033 52.5086C79.1993 52.5462 79.0871 52.5553 78.9783 52.5349Z" fill="#211F20"/>
</g>
</svg>
