<svg preserveAspectRatio="none" overflow="visible" style="display: block;" width="33.5773" height="26.2802" viewBox="0 0 33.5773 26.2802" fill="none" xmlns="http://www.w3.org/2000/svg">
<g id="Group">
<path id="Vector" d="M32.155 18.8082C29.2592 18.9426 26.3641 19.0933 23.4673 19.1995C22.781 19.2246 22.6677 19.3046 22.9757 20.0073C23.6966 21.6517 24.585 23.2317 25.0183 24.9992C25.1355 25.4772 25.1389 25.9538 24.7708 26.2066C24.3836 26.4724 24.1327 25.9484 23.8961 25.7389C21.3507 23.4857 18.8243 21.2112 16.3168 18.9154C15.8808 18.5166 15.5816 18.228 14.8498 18.3477C13.7287 18.4609 12.5988 18.458 11.4783 18.3392C8.48306 18.1982 5.51963 18.6362 2.54645 18.8488C1.59575 18.9168 0.967681 18.4259 0.214863 18.1197C-0.11417 17.9859 0.0311043 17.6715 0.0368166 17.4437C0.123273 14.0012 0.052174 10.5577 0.604803 7.12983C0.791117 5.5034 0.830907 3.86352 0.723693 2.22998C0.696139 0.946252 1.15268 0.438898 2.46232 0.502557C5.7328 0.661486 8.97993 0.143178 12.2551 0.191883C14.9893 0.23256 17.736 0.0649425 20.4729 0.00346213C21.9844 -0.0304859 23.5406 0.195751 25.0804 0.222692C27.8164 0.270565 30.4646 0.989593 33.171 1.26058C33.2335 1.25514 33.2963 1.26549 33.3537 1.29068C33.4111 1.31587 33.4612 1.35509 33.4995 1.40473C33.5378 1.45438 33.5629 1.51285 33.5727 1.57477C33.5825 1.63669 33.5765 1.70006 33.5553 1.75907C32.8716 7.07685 33.171 12.4324 32.9616 17.769C32.9399 18.3229 32.943 18.8938 32.155 18.8082ZM5.98258 5.21372C5.55277 6.04906 4.97137 6.79721 4.26803 7.42C3.23549 8.45315 2.93643 10.2311 1.14954 10.5128C1.06773 10.6251 1.027 10.7621 1.03418 10.9009C1.00518 12.1233 0.98797 13.3461 0.967282 14.5687C1.6748 13.6667 2.32993 12.7248 2.92945 11.7477C3.96995 10.1866 4.821 8.48834 6.19852 7.16744C6.13723 7.5625 5.95878 7.93007 5.68626 8.22259C4.69498 9.71355 3.70817 11.2075 2.72583 12.7044L2.94757 12.8775C4.42878 11.5359 5.39863 9.70492 6.94372 8.32081C6.97519 8.39648 6.99502 8.47647 7.00254 8.55808C5.19645 10.9611 3.30092 13.2922 1.28017 15.5171C0.70937 16.1456 0.874328 16.826 1.0323 17.4697C1.18154 18.0779 1.74977 18.1574 2.3433 18.1928C3.81861 18.2806 5.24743 17.9044 6.70082 17.8373C9.61922 17.7025 12.5323 17.4491 15.4609 17.4904C16.174 17.5005 16.6349 17.6467 16.9518 18.2568C17.5244 19.3593 18.7089 19.8011 19.5081 20.7195C19.5176 19.6288 20.1137 18.8835 20.6491 18.1144C20.6616 18.0621 20.6868 18.0138 20.7225 17.9735C20.7582 17.9333 20.8032 17.9025 20.8536 17.8839C20.904 17.8652 20.9583 17.8593 21.0115 17.8666C21.0648 17.8739 21.1154 17.8942 21.1589 17.9257C21.2025 17.9572 21.2376 17.999 21.2611 18.0473C21.2847 18.0956 21.296 18.149 21.294 18.2027C21.292 18.2564 21.2768 18.3088 21.2497 18.3553C21.2226 18.4017 21.1845 18.4408 21.1388 18.469C20.7553 18.8983 20.4755 19.4098 20.3209 19.9643C20.8847 19.5121 21.5365 19.473 21.5873 18.9831C21.67 18.1852 22.1497 18.2746 22.6523 18.3161C25.5463 18.5556 28.4038 18.014 31.2816 17.9043C31.634 17.8909 32.0956 17.9092 32.1115 17.1941C32.2194 12.3427 32.3883 7.49253 32.5648 2.64294C32.5893 1.96906 32.2956 1.73788 31.6934 1.6627C30.5418 1.5189 29.3977 1.24664 28.2442 1.20678C27.2721 1.17318 26.2756 0.486479 25.2946 1.58006C24.1538 2.85184 22.9972 4.10717 21.917 5.4334C21.1406 6.3866 20.66 7.57037 19.6476 8.33806L19.2359 8.087C19.2111 8.00004 19.2105 7.90798 19.234 7.82068C19.2575 7.73338 19.3044 7.65412 19.3695 7.59139C20.5715 6.22352 21.7457 4.83086 22.9642 3.47806C23.7295 2.62846 24.2669 1.62155 25.2168 0.803123C25.0707 0.750784 24.9215 0.707833 24.77 0.674536C20.3189 0.413193 15.8671 0.829034 11.4158 0.658402C11.2894 0.627514 11.1564 0.638413 11.0366 0.689467C10.9169 0.74052 10.8169 0.828983 10.7517 0.941608C10.2036 2.1972 9.10922 3.05114 8.3869 4.19268C7.72459 5.23944 7.16863 6.4059 6.15727 7.21189C6.36052 6.34707 6.98195 5.72254 7.43804 5.00514C8.06 4.02682 8.71614 3.07022 9.35762 2.1043L9.2293 2.02708L8.45979 2.59986C8.5779 1.66041 9.7247 1.59199 10.089 0.707133C7.70212 0.559864 6.69753 2.37598 5.37779 3.70043C3.97707 5.11787 2.91811 6.83613 2.28147 8.72448C3.94099 7.76975 4.60907 6.12683 5.98258 5.21372ZM7.05008 0.910517C5.94184 1.17291 4.895 0.554589 4.3616 1.30283C3.51704 2.48764 2.94892 3.86952 2.26383 5.168C3.87038 3.88137 5.50647 2.70544 7.05008 0.910517ZM21.985 19.7894C21.495 20.5809 20.37 21.1824 21.2108 22.115C22.0913 23.1716 23.1438 24.0719 24.3241 24.7779C23.5 23.0205 22.7705 21.4645 21.985 19.7894ZM1.33546 5.62361C2.22781 4.40617 2.54847 3.19227 3.1409 2.12879C3.31578 1.81483 3.59462 1.3692 3.34347 1.12536C2.96737 0.760238 2.37365 0.938285 1.88112 0.975093C1.39698 1.01127 1.40449 1.44116 1.39894 1.81653C1.38164 2.98619 1.3603 4.15578 1.33546 5.62361ZM3.22898 5.38678C1.16089 6.46187 1.02679 8.17743 1.09659 10.0711C1.80992 8.50407 2.48739 7.01586 3.22898 5.38678Z" fill="#B55A43"/>
<path id="Vector_2" d="M18.9696 8.56286C19.2431 8.50762 19.2007 8.27566 19.2359 8.08706L19.6476 8.33811C19.1182 9.73939 18.1319 10.8674 17.3751 12.1327C17.0184 12.6319 16.7599 13.1944 16.6134 13.7903C18.4621 11.9839 20.0786 10.4033 21.6963 8.8239C23.4979 7.0649 25.3802 5.39117 26.8168 3.27952C27.1888 2.73273 27.913 1.66718 28.5515 2.26345C29.0839 2.76062 27.9025 3.23983 27.4681 3.63121C24.3147 6.47243 22.4361 10.1791 20.4535 13.8097C20.0418 14.5637 19.3894 15.2452 19.3294 16.3349C21.7261 13.7058 24.0289 11.1795 26.3318 8.6533C26.0869 9.86395 25.0876 10.4793 24.3786 11.3102C22.4612 13.557 20.4906 15.7586 18.5225 17.9614C18.3748 18.1267 18.2269 18.5507 17.8655 18.2652C17.5159 17.9891 17.8655 17.6875 17.9703 17.4889C19.2058 15.1475 20.4569 12.8136 21.7549 10.5063C22.3022 9.53358 22.97 8.62863 23.583 7.69286L23.3768 7.49118C22.532 8.35575 21.6779 9.21144 20.8444 10.0867C19.1345 11.8824 17.4384 13.6912 15.7296 15.4879C15.3989 15.8357 15.0385 16.1604 14.4251 15.8579C15.469 14.2625 16.5033 12.686 17.5328 11.1064C18.0209 10.438 18.4319 9.7164 18.7578 8.95551C18.8284 8.82462 18.899 8.69374 18.9696 8.56286Z" fill="#B55A43"/>
<path id="Vector_3" d="M24.9505 13.8528C25.9646 12.7556 27.0276 11.6989 27.9793 10.5499C28.9261 9.3759 30.0739 8.37941 31.3692 7.60684C29.6617 10.6228 27.2155 13.1835 25.8254 16.4958C27.4203 15.4461 28.504 14.0039 29.7883 12.7722C30.1003 12.4729 30.4657 11.7203 30.9564 12.1478C31.364 12.5029 30.7372 12.9773 30.4923 13.3475C29.7971 14.398 29.0612 15.4217 28.3051 16.508C28.7715 16.5647 28.871 15.9151 29.4372 16.2551C28.9116 16.8944 28.4197 17.4994 27.5135 17.6955C27.1564 16.33 28.6169 15.7191 28.7854 14.353C27.9033 15.4105 26.8837 16.0613 26.1756 17.0511C25.931 17.3929 25.6075 17.943 25.1486 17.6186C24.8005 17.3725 25.0083 16.8265 25.2161 16.4165C26.2023 14.3891 27.3416 12.4398 28.6241 10.5856C27.4739 11.4358 26.6626 12.6025 25.7662 13.679C25.0525 14.5361 24.4377 15.4752 23.7651 16.3673C23.5659 16.6316 23.2856 16.9592 22.946 16.7454C22.5644 16.505 22.892 16.1972 23.0442 15.9363C24.4333 13.5553 25.8091 11.1645 27.2065 8.7912C27.8753 7.65521 28.5746 6.56953 29.3476 5.51193C29.5701 5.20744 29.79 4.74675 30.1482 5.03966C30.4699 5.30275 30.0598 5.6758 29.8431 5.93228C27.8287 8.31748 26.4911 11.1276 24.9505 13.8528Z" fill="#B55A43"/>
<path id="Vector_4" d="M18.9696 8.56283C18.899 8.69372 18.8284 8.8246 18.7578 8.95549C17.3625 10.1448 16.3138 11.6544 15.0559 12.9721C14.2319 13.8352 13.3147 14.6188 12.6436 15.6246C12.5277 15.7675 12.3914 15.8926 12.2392 15.9959C12.1358 16.1024 11.997 16.1674 11.849 16.1786C11.701 16.1898 11.5541 16.1463 11.4359 16.0565C11.1799 15.8362 11.4274 15.5821 11.5445 15.3742C12.2374 14.1436 12.8929 12.8879 13.6557 11.7016C14.7359 10.0218 15.9748 8.41846 16.9806 6.7228C17.9076 5.16023 19.0922 3.84955 20.1225 2.39998C20.2894 2.16519 20.3678 1.57043 20.7136 1.78612C21.1417 2.05322 20.7948 2.49097 20.5475 2.80871C19.6752 3.92924 18.8223 5.06582 17.9209 6.16255C15.8943 8.62846 14.327 11.3925 12.7121 14.1253C12.6197 14.2816 12.3696 14.4488 12.5549 14.7593C13.8399 13.7848 14.7704 12.4729 15.9014 11.3638C16.6531 10.6267 17.3296 9.81328 18.0705 9.06445C18.3075 8.82494 18.5025 8.42437 18.9696 8.56283Z" fill="#B55A43"/>
<path id="Vector_5" d="M12.6797 8.30044C11.5768 10.0312 10.6344 11.8592 9.86409 13.7614C12.0721 11.9177 13.4886 9.36984 15.685 7.24362C15.0615 8.64474 8.31985 17.0121 7.63092 17.3337C7.55823 17.2484 7.51645 17.141 7.51233 17.029C7.50822 16.9169 7.54201 16.8068 7.60825 16.7163C9.19539 14.0691 10.3903 11.2025 12.126 8.63856C12.2637 8.43514 12.3346 8.13566 12.6893 8.30123L12.6797 8.30044Z" fill="#B55A43"/>
<path id="Vector_6" d="M8.74655 8.30739C8.81219 9.20189 8.03741 9.67822 7.69931 10.3732C7.12097 11.562 6.43551 12.6987 5.86129 13.8979C7.63106 12.2199 9.08819 10.2823 10.5996 8.39307L10.857 8.60159C9.53965 10.3004 8.24823 12.0202 6.89428 13.6893C6.1873 14.5609 5.66727 15.5961 4.72413 16.2669C4.65538 16.3535 4.55747 16.412 4.4487 16.4317C4.33993 16.4514 4.22772 16.4308 4.13301 16.3738C4.06143 16.2896 4.02383 16.1817 4.02756 16.0712C4.03129 15.9608 4.07607 15.8557 4.15316 15.7765C5.6177 13.4486 6.73302 10.9134 8.36479 8.68551C8.4883 8.55299 8.6272 8.43571 8.77855 8.33616L8.74655 8.30739Z" fill="#B55A43"/>
<path id="Vector_7" d="M12.6893 8.30124C12.5281 7.49477 13.1092 6.98105 13.4986 6.43259C14.3759 5.1966 14.7111 3.66431 15.736 2.5073C16.0822 2.08541 16.4734 1.70249 16.9026 1.36529L17.1013 1.55685C15.6269 3.80448 14.1527 6.05224 12.6789 8.3001L12.6893 8.30124Z" fill="#B55A43"/>
<path id="Vector_8" d="M8.77862 8.33613C9.30972 6.9255 10.4567 5.87494 11.0535 4.51822C11.6081 3.32358 12.3781 2.24139 13.325 1.32589C13.4952 2.50831 12.6 3.05253 12.1566 3.77166C11.2253 5.28234 10.1415 6.69922 9.11439 8.15042C9.08308 8.21688 9.02859 8.26963 8.96115 8.29876C8.8937 8.32789 8.81794 8.3314 8.74809 8.30864L8.77862 8.33613Z" fill="#B55A43"/>
</g>
</svg>
